<mxfile host="app.diagrams.net" agent="Mozilla/5.0 (Windows NT 10.0; Win64; x64) AppleWebKit/537.36 (KHTML, like Gecko) Chrome/134.0.0.0 Safari/537.36" version="26.1.1">
  <diagram name="PÃ¡gina-1" id="3YJ2EJbjLa3MCXvD3q6r">
    <mxGraphModel dx="1173" dy="568" grid="1" gridSize="10" guides="1" tooltips="1" connect="1" arrows="1" fold="1" page="1" pageScale="1" pageWidth="827" pageHeight="1169" math="0" shadow="0">
      <root>
        <mxCell id="0" />
        <mxCell id="1" parent="0" />
        <mxCell id="EeAk10VtTzFDhjeAnIUY-1" value="" style="shape=image;verticalLabelPosition=bottom;labelBackgroundColor=default;verticalAlign=top;aspect=fixed;imageAspect=0;image=data:image/png,iVBORw0KGgoAAAANSUhEUgAAAsAAAAA+CAYAAAAlKK2vAAAAAXNSR0IArs4c6QAAAARnQU1BAACxjwv8YQUAAAAJcEhZcwAADsMAAA7DAcdvqGQAAFPKSURBVHhe7Z0JXFRV+8d/MzAbCAwYiBuLC+4QSaSSuKRJaa75arjgq77+zcy0cstUTFwzywpT3HNJRUstlzdJEcolNJBF1DCRBEEFJRBZZub5n1lgZljmzgBqb95vnzHuds5znu089849ICAGeHh4eHh4eHh4eJ4ShLr/8/Dw8PDw8PDw8DwV8AUwDw8PDw8PDw/PUwVfAPPw8PDw8PDw8DxV8AUwDw8PDw8PDw/PUwVfAPPw8PDw8PDw8DxV8AUwDw8PDw8PDw/PU4V5BbDyD3y37DMcz1HpduhQ5SHx288ROmcuFn62F/F3Kh03gfLat1j87nRMn67+zMCMd9/H7PlL8GXkOWSV6E5SU3QG62fOx64UhW5H3VFkx+P48Qu4Vcrk+PMMDv6SAaXu2D+Jwl++wsyFu5Faf6p7dCiv4+DSmVhzMle3oz5R4vrBpZi55qRu2wxKMpCUmgvzPZrnqUWRjfjjx3FBm1Bw5uAvyDBIKMo/D2PFe+/jk2NZuj2PAeUNHFr2HvP5E7j9N3Pi0j+jETFvAob27YnA3q/gX5MXYdvZnEeXgy3MLf9TeVPNI82dj4b82HDM/GifduMRzPFPM0Vn1mPm/F26LUspwpn1MzF/V4puu+6UZCQhNbf+k5Dy+kEsnbkGJ+vQNncBzIrcmNDRGB+6E+dyDX5lsCobByZ3Q9cJ4Yi5koITX/wH3bqEYLdh5jeBgiXBrV9uw0+/30Vu7l3cvZ2Fa78dwWf/eRHtX/g/7E3XtVOagV+P/oiLOfWUHotO4r0ePTFiZC+0bRuAoEHDMPe7m//AAliFB4nf4ssNUbj+P1EAZyFmWzgiz9/X7ahPlMiK2YbwyPO6bQ7YhPLVYD+M3ZXBF8A8HBTh5Hs90HPESPRq2xYBQYMwbO53uFmRUEoRFz4bYcdK4e3vqtv36Ck+vQazlv0E+HSGy9/oez7lH1swsuurWBStRNs+QzF84ItodnsfpvfsgpBvHlG8WZRb/sfypppHmjsfBSoUJuxH+BbdA4n6nuOfckozfsXRHy/qtiylFBm/HsWPF3N023VDef0rDPYbi10Zj6AAzorBtvBInL9f+z9lYTI1lvx5Aqve6Ib+Ky/gQaU+Sn5ZidlfCzDx219x4rtDOHX+e7xt/y3mLjvJpgQzETRC0LzN2L59O7bv2IV9h39Bym9fY2DhVvzfxLVIU8eDfAQ2JZ/Dit4S7TV1RFWoQouQzfg16zqilw9Ft2ErsG1eF4h1x3l4QIW4faeQL355uFExP2kRgs2/ZuF69HIM7TYMK7bNQ5fyhKLMRI7DMKzdtRx9nR5XJarEzduOGLl+J8J6Ouj2/R0oxYWIVThi+3/YfXwrls6ehrenz8PqfdHYMlKByMVf4tdS3ak8Tw/1PMc/7chHbELyuRW6LUuRY8SmZJxb0Vu3XTeo8DbusJrr70rNGVn1J9aHDMFn2f3Yndpb8LLW7ddQioQfjuFG66EY012bYIWOAZg86jlkH/0OZw1fYbAQSYs38GnYYIhiNmJrArsFz/8Ob3fri9AYbWbMP/clQgJaw9lWDLGDG/yGhyEqu1zBKuREr0Swf3PYi60hdW6LfjO+QWqx7jBr651hW1Dm/jvmvtABAaM+wBdf78T+2PInwCrcPvUJQnq0gYutCFbWUjT06o23dqRCM6S8fZjSPRhz5w9DOydbOPnOwkkT1b7q9h5MDhiIFXH6rK5I/BRDAybg6z/VMufju7e7Y/SqnVg+/Fm42oggcWqDoDmHKr5CVd0+hU9CeqCNiy1EVmxMDb3Q+60dSDVXx5SHX8IGoI0j05e9B16cGIH4At0x1W2c+iQEPdq4wFZkBWtpQ3j1fgs7KhrPx7kvQxDQ2hm2YjEc3PwwPCwKenXnIHplMPyb20PMdOXcth9mfJOKcnWbpCgZ26e9BC8nKbNjS/SZexy3jW6yOGxpkiIkb5+Gl7ycIBU7oGWfuThu1LgJO6uysGPyWGy4XIK0LaMRwG6W1F9GlF4/hAVDfNGkgQjWMhe0C5qBXZf0xjftlzWT/93b6P7GMmxa2B9ejhJI5J7ozmx0Pl93ApeNqvNJlnRM27VmOH1WHY/dR2PVzuUY/qwrbEQSOLUJwpxD+teI6uazCmQcWYwR/u6QS0SQOXfAax/+UBEPJu2gk235llAM7vAMs70tmnV9E9+kJmPHm93hbsds4+iF/kticE9jGm38vbFsExb294KjRAK5Z3dMjDjPjmgxPRZ2/TvDsKXMHb/PfQEdAkbhgy++xs79sfonwMpbSIqJwq/XdPrkjDlTcOQn9Rk50VgZ3BW9/r0YYf/uCZ9+M9j4y4MmD/umdEfw3PkY1s4Jtk6+mMUSmPYafzS3FzN5nNHW6Jq62tMQQv79ApCVlfHEI2yIV977FGHjX4Bd+YEnnVtM5U0Gl85qROOjb2DZpoXo7+UIiUQOz+4TEVER8IzS6zi0YAh8mzSAyFoGl3ZBmLHrkv7BUh3Hl7dvCroHz8X8Ye3gZOsE31mmXw2r/nwOHVri5wZzvCpzOyZ28YOfX6VPF3aTqU7EHO2aPzYWS3smI2DgCuhTnQKJnw5FwISvtZtm5Lrqqeu8yeavr6eit2b+asBy2ESEr5qMF4d/zo5xy62eU7r1DdX8XLuc2A19Q2M0l6v7M2Vnzfw1ehV2Lh+OZ11tIJI4oU3QHBxiCVuVtQOTx27A5ZI0bBkdgJDN6ZpruObSmihK3o5pL3nBScp02rIP5h6/zTKKAbXJGeo/hVw9Dyg99Q8qYD+V/TqXOsr8aHGKQnuI7d0xxJZsBm6l+7o9ah4eGEvO0j4Ufkup21MzxSffphbiNvT+LyW6PXqU2Wupr0RCL3+VTXQ3goKkLhRy8KFaEPqgky21DYmgE/HJ9NuxT2iIm5iaTTxChey6sqSVFCh3pM6T1tKRs/F0+tslNMjThlpNPkL31A1r2pJSA8+XaO72aIo7e4jCgpqQqPE4Oqge6N29FOwqpdYjP6djcUmUxI5/PMSDRPIhtD1XK1cfsZBsfCbR9thYitwbQ7dNDFV583PqJfOgKT8V6/YQlfz8LnnJAmhlmlqXdykiSErSBp700tztFB13lg6FBVETUWMapxWI9ga7krT1SPr8WBwlJbHjHw8hD5GchqgFMomSstf2IbHAihz9ptCGqDMUs2su9WokIo+JP1AeO+Pu3mBylbamkZ8fo7ikJDp76GMa4iEi+ZDtpG697NcPqJNtWwqJOEHxyb/RsU+GkJu4GU08otE2Ja0MJLljZ5q09gidjT9N3y4ZRJ42rWjyEY22TVBIJ97xIskzL9J7X0fTmegdNLunK1kLRBSwMk1zBqctTVB44h3ykjxDL773NUWfiaYds3uSq7WARAErtSeYtHMBJR4I0+ih+aCFFHEgge49iKXZnWzI4dkJ9MXh03Q2ajPNCHAmscd4OqB2AA6/NMXdiCCSiKX0DGv7q+On6ZTaRq4icvv3AY0NuGxUnU9e3m36GlNw+ixXDNXJZ1lf8YvJv4ED+U5cR8fjztOJiPHMB+XUL/wPlpI47KCWTSIimXs/Ct1/muJj1tJwdxHZN3Sj5/+znqJ+PUv7Z3UjubQrLb9cHn8SEkufoWcnfEXHT5+iXXN7kavIjf59QKN9jrFwxS+j+AhNbCqjfutuaza57GkSjvzEgoZWBsrJsfMkWnvkLMWf/paWDPIkm1aTSROSymxa20dMQhsfmrQ9lmIj91JM1kXT19TRnpX5K2oatWE2esZnCL2zfCsd+e0mFVbJoU8yt3DnTU49m0Ljo2KSPvMsTfjqOJ0+tYvm9nIlkdu/SeNybN6Nnd2JbBzY8S8O0+mzUbR5RgA5iz1o/IHbTLp6Gp/QhnwmbafY2EjaG6P1zeqp/nyu/Gzaz5V08/NeJPOYou3CcI7/K5EObYqgiAjd56sFNNBNRLa+s+nUX9ztmj82vQz6VFdCP7/rRbKKeYIr11VPXefNgqi3dfPXNjp5Nob2LAii5izHW7ebxY5yy62eU6QuIZqfa5cTpeQSclBzOaed1X1JG5DnS3Npe3Qcs0cYBTURUeNx7PqCRDoQps4VzWnQwgg6kMCu4MrhNVF4gt7xktAzL75HX0efoegds6mnqzUJROW1VO1yhokCWE+VAliTSKXkNGo/MZetoPinKeQu7ULLrujOM4GpApge7Kbh9iJ6PixF54S64Hi4n4Kd7Kh72G90X6MrBaX/uJ7CDyazkryYot50J2mXZaSxo467O4aRk/1A2qKOA13yCVx9nbmRlpLoadRS+jyFXVKQMucc7VqzhU4ZGKIkZjq1Lj+uLjYkUuoTnllxvSnMK4DZBBy4mq7rBaJpLaVs7JdYAzl0btca2nJKnfh0lMTQ9Nba46a1rE0GEumL9HGFPZSUuf4VsmcT5te5Sso5t4vWbDllUMSXUMz01iR9PozYcJm6g8nJrjuF/XZf278inX5cH04Hk1n0F0fRm+5S6rLssoEcd2nHMCeyH7iFTKVUKthPo51lFPhJWsW1ysz19Iq9WJfEzbBljRTQ/tHOJAv8hDQqVqPMpPWv2JNYlyC47ExliRTaWUbeH/7Gwoq1GPkGNZR1pWWpemGUWZtpoNyGen9xg5Qm/dI0mgJY8gItrbi5VFLWxgEkt3+NNuWUcdqoqk9y29UUZhXAJmKobj5bQtHTWpLEex6dr0gLhfRT2Cia8OU5bjvoZFP7kPaMYjo+2Y1E7pPpuC5RKbO+pJekjWnCD+od2viTvLCU9OrPoo0D5GT/2ibKKeMaC0f8qjEqgOtoGw6/LY56U5t/jYOGhjnZ00B10GjytoSkfcIpU9cE9zV1sWd1lND1w2E0+sUW5MBuSiEQkszVm159K5x+zta19kRzC1feNENnptD4qIReWJqily9rIw2Q29Nrm3JIWRBJbzSUUddlqfqxM5/cPFBONr2/oBv59TW+PhRe7gQmqe587j5M+7mJAtgQ5W06Nt2H7JsNpc1p6kzM3a75YzOzADaV62qgbvPmPfpmuBPZ9Q2nGxVDyKU9b7iQqNYFsKU5sbwA5p6HtQ9wAmm1PgFqcrjaHmrKEkOps8ybPvxNbT8z5lLdvsoU7B9NzrJA+kQ/qWtjUqybl2qZM2r3UppQBJEIUKkqfcXLtlUQQljXV93KivCwVAAbG1vdDh3SXhg7xg0X5vuhSTMf9B0zB98V+GN4/w5ooMxCQtItKC6vw1CfjujYUfvpERqLoodXkZKm+75AIEeLVq4VX8EJ5XLYCRQoLSUIXfwxYowf8vcvw+wpYzG0jx/aDwpHmpKNS6V72C5whLu7k/FXeHVCAHmLVnDVCwS5nQCKUiav0AX+I8bAL38/ls2egrFD+8Cv/SCEpyk1ujd6/F8DVu5dEOBhpdsSwuWF59GyOBVJVxVw8R+BMX752L9sNqaMHYo+fu0xKDwNSrUdWePSXmMxxu0C5vs1QTOfvhgz5zsU+A9H/w4NoMxKQNItBS6vGwofna47duyB0Fhmu6spKFd3dSjSk5Fa0BS+fs1RIZlLN3RprXvPxlxbVociHcmpBWjq64fm+sbRrUtrlL/FY5adK1Dgj6TLeNC8K7q3KG9Q3UYgAtorcSXxEspM+aXufFNYeQaiZysDG3XxR6vSy0i+quK0kQYjn2TXm3NNXTARQ3XyWVUeUi5lwuE5f3SoeCnfFr3n7cDGt57jtoN6h8AeLb2a6vyK5ZAGMlg3dkdzlq/UCG1sIBMooaj4DtMKnoE9oVe/C7r4t0Lp5WRcVZkzFhPxW4W62ca03yqQlZCEW4rLWDfUpyJmOvYIRWzRQ1xNSYNWIgEc3d2hfR1ZyX1NPeQgY8TweHUetsdeQ05WMk7sWo3pLzvi0pa30bfPbEQXqMP/yeeWmvPmQzP1bAIrTwT2bGUgXxf4tyrF5eSrKP4jCZcfNEfX7i0qjqt9MjCgPZRXEpGUVj/jEzi6w92Cd9KNzufsg3tu4aYIFz8LxtitErzzzWb8u6V6fObFj6VjM4mpXFcDdZo3i35HYmoR3J/3R5OKIcjRtUsH6FKY5VicE3WY60vyFmilT4CQy+0gUFQXBWbMpbp9xiiQnpyKgqa+8NNP6nDp1gV6t69dziivCSzEBg0b2qLk7j08YFtS7U4ocvPwl9AJzzTUD642lCazyUf5DLq3qbxq2hH9PjuD+Fd2Y+f+w/jxxEbM2rkGqwavQ8zubihhg7TvHIyZIe30yUON0A5tNQHEEFjBqpJ4At3/VVmRGN99DPY8bI/AwM7oFDgOw147g3mzr+jOYKivty6/whwqBYp60jDaJWDy1CgQIsd3x5g9D9E+MBCdOwVi3LDXcGbebBhIZBqRGCLDXGBtrQlmIhWyIsej+5g9eNg+EIGdOyFw3DC8dmYeKobr2A+fnYnHK7t3Yv/hH3Fi4yzsXLMKg9fFYHe3Epbo7dE5eCZC2hnLL7Rri3J1VwuLNCWTgomiRyCFVFI+8BLzbFktCihZIAuNG4dUKrHMzgaUKhVMbyLjYGF+oO5CpVIyC5vwS6Zjg1ivFoFUBpmhjays2ZhJU2Bw2kiNkU+aeY1JOHzWRAzVzWfLNEnY2kqkb88Abjuot7U350YIWIzpfqwK8w2ZrGKCU2Nlzc5m8aEyaywm4rcKdbMNl9+WaIMGwTNDYBySQti1bcn0ptaQWl7rChE5r6mPHFSO4hK+/ewIVP3exuudJJA4t0evkerP23h/5JvwH7QVm6LC0L3dE84tCeznGvOmOXrmgMkjMw545vNql1OpnZxlMGuIjBphNtM6OZRl9TM+AfNZS6Yx4/O5+hDWMQep8GfkFLy+4Br6bDiJhS+WL+Q0L34sGluVVEfGu0zlupqoh3lT7QuVHi8awyW3IRbnxHLM8KVkrb6N26pZQ2bl8GpQaCd1o+sEUin0bl+7nGEYhRYggrdPO+DSb/it4g3jUiT/loSSlj7wttPtqg2qOzi6aT+uN3oFQwKNV4WqcuOwe80+ZD83AYsiDuBMWiYSV/dA4ZEdOHynETzdbPCgyAFdg8dgzBjtZ1Q/X7Rs441WnHeEKtyMXIs9d3tjTdx5/Hf3BqxaMBUDGpXhL+aJ6txkMWrHoFKUPNSbtTQ7G3fNbEt1MxJr99xF7zVxOP/f3diwagGmDmiEMgsEUmZexe+Fug1GQVIS0q094eWZjci1e3C39xrEnf8vdm9YhQVTB6BR2V9ME9r/cuN2Y82+bDw3YREiDpxBWmYiVvcoxJEdh3GnkSfcbB6gyKErgnW6HjNmFPr5tkQb71a6J0zVY+3eGp6SW7iUksd60VFyBVdv6H7vkFXj2tvS2h2tPSW4dSkFefrGceXqDTaxqDHHzgKDELaGu6cbrG8mI1m7SkBLUSKSfgeaeXjCypRfmrEQTplxGZcNbFTIbgD/sGqBNi25bFQNqpuWX2PIk/RZYUN4uNkjL+2KfsEIs1rqxjcxauExTjvU7gmJEhmXL0Ov/kIkJ/8BqxZt0DK77vFnRJ1sw+W3VmjM9GPzoAgOXYMrYmbMqH7wbdkG3q2q+9aK+xrWaf3pQJWHnzewYmX9L5V+U5AQcp9OcBey4k6pYuH/5HNLjXmzpaQWeq6EMgOXjQMeyX9YoUWb1pC6s7Fb32Q+eM/AH4qQqHVytGr5CHOnuXD1IWc3TXXIQfk/h2L4pENoPHc3It5w1xdXdc1tlVDfuFJpCfSprhTZ2XctbseYOs6b4tbo1E6GG+fjDHLgX4iLS614Ovpo5K6G+vAlVmjr4Z5Lq8/h7LrWnpDcuoQU/aTO3P4q9G5fu5xRy2iwgseQf6HbX7sxf+FR/FlcipxTKzB3SwZ8Ro7As5pqW4ErRyOwft95g0KkMmW49+dlpKSksE8ifj0ZidWTBmDCDgVeWzwPQZW+PxYKruHAkqmYtvgIMtSLPhV/IfPPXJQ6ucHNwRFBo4fA+fyneGvpT8hkx5V3zmL1uJfRc3AYYtWPqjmwZrfdgtI7SE+/z5xJidwLmzBt0fe4r74Tqij0zUcod4e7412c3HsI6UyekoxjWLz6KPJrus2pjPpOSVCKO+npuM90qMy9gE3TFuH7+6wtMwWi+4ex7IMDSC9WofDSDry76AeIXh2Dgc+IIWK3yaV30pGubRwXNk3DIm3jKGauIbh2AEumTsPiIxlMA2p1Z+LP3FI4ubnBwTEIo4c44/ynb2HpT5nsuBJ3zq7GuJd7YnBYrOabgRpxfBXjhjnixPJ3sPliPpTFN/D9h6HYe6vcURzqYEtHvDpuGBxPLMc7my8iX1mMG99/iNC9tyoSBKedBWJIxITC+/c1RXPDAaPR3yYKS6dGIC6P7Sm6hm9nL0Tkgy4Y+XobiEz6JXeI0b0fsHR2JK4WKfHgyh68v+ggBEFjMLgRl42qQ/30yNJr9DxZn7VBr5GD4Xr2C8zdloICVmAVpGxD6JKtuFDgwGkH7ica1UG498NSzI68iiLlA1zZ8z4WHRQgaMxgNBLXPf6MqZttuPzWIWg0hjifx6dvLcVP2qDB2dXj8HLPwQirIWg4rzHDnoorRxGxfh/O15zotYi7YMJ/uiB3y5v49+r/4up9pWZ3UebPWDtjDc64DsXI3jZqoZ54bqk5bwprpWcj6B5+WDobkVeLoHxwBXveX4SDgiCMGdyI3QMOwOj+NohaOhURcXks/xTh2rezsTDyAbqMfB1tnnmUudNcuPqovZ8rrmxAyMiVyOy5EIsH2SJdUxuoP6nIuC+sU/wYw2663N3hePck9h5KV0cQMo4txuqj+TU/STWLus6bcgyYPBpNYhdh9KytOHH6FPZ+NAbv7skBaYrJRyV3ddTdlwRiCcRUiPv3tZVqbXO446vjMMzxBJa/sxkX85UovvE9PgzdC73b1zJn6N4FNknV3wKhpoRSt4yl9vZCshKJyFpoQ61e/4oSK95jL6CtAyUk6hxKidr3n43QLIJTf8+rnoHYRyCwIrG9K7XpHkwLv/tdv7jO6AX5MkrbOYG85VZkJbUje5mIRM7+NHVfuvbFZ+Vdilk6gFrYCkkolpLEWkDSZn1oQVSO9uVqdVuyxjThcEXrVJawgHxlvrQgoYyUuVE09wUnNhYx2TaQktjJh0YtnUNBcjkN2pJDZeoFR7JmNOmYfoGQaUooed1QaiETkrXUhqQ2HjRg/hR60dZwEZyMGk84rB9vWQIt8JWR74IENp5cipr7AjlZC0ls24CkYifyGbWU5gTJST5oC+XU9Ma4Bu2CAJvWAymkV2OSSKUkEorINfADOqb5LR1Kyo2aSy84WTNd2VIDqZicfEbR0jlBJJcPoi3qxsvSaOcEb5JbWZHUzp5kzM7O/lNpX7rWD5R3Y2jpgBZkK2TySSVkLZBSsz4LKMq0YBqUd6NpUd9mJGUyiVm7DbuE0JCONrqFHJoTTNvSFOza6EV9qZlUSCIx85GGXShkSEeyKV8Ex2FnJbPGyeleJLGSkF2n9ymmhOkyaiG97CYjgZWUbCTWJG0aSNP3X9cskuP0SxNoFiw4vkCvBjZmehAzG0moac85dDjLPBtpFsEZ+aQZdjUJh89yxFDdfJahzKPYZf3JQ8bygY2M6UNGHv1X0C+ahbwcdqgiWwn98n4bknVdTr+XG+L+ZhogK88n2gUfji+8SoGNme6ZrwglTannnMOkVT/XWDjiV02lRXB1sQ233yrpbsxSGtDCloTsHCnTj0DajPosiNLqXbMITkbNJh0jfQbjuobbngVbB5JE1JlCq0v0lVFk0Y+LBlFbOevHio3Dzkbj867Pj6N15//SncS6fWK5hStvahowrTNTaOYzR3rh1UBqzPxNLBKSpGlPmnM4i7WqRZkdRQtfdiMZmxOlNmzs0qYUOH0/Xdeptz7GJ2s2icybxmo4n6MP035eVsMiuAeU9eVLJNbVBMYfCQ3YnMfZrkVjK0mmdUNbkEzI8ogNyyceA2j+lBfJ1nARnKlcVxN1njcfUNLWydSjhZzFVQNq6j+apg1l81GnedrDHHJXWQRXi5xY/lsgTNtZ25es8QTSq6iMEhb4ksx3gXbz4Uma7iUhK4kddXo/hu3gmktrgsVc9CLq20xKQvU8KWpIXUKGUEeb8lrKHL1WRaD+hzlYrVHev46E5JtQOLeFbxvnx/IHJVSFmUhJuob7Qmd4+bRDo/KXkHUo89ORmJyBQklTdPBuCSdLhFIV4MbFi7hRLEcrn45oYqPbXwdK71xB/JV7sGvti/aNLP1l3yoU3LiIizeKIW/lg461EUhViBvxCcgUtcCz3k1g2IKq4AYuXryBYnkr+HQ0PqZFhcLMFCRduw+hsxd82jWqeOdbixL56YlIziiEpGkHeLd0ssAHipGTehFpD5zR4bkWkFfzsLQutizOScXFtAdw7vAcWlRunMvO7Hh6/EX8qWoK786e0DzIVeQhLeEScuCKtt6t0LCSLFx+WR25G15B84VNsS/tM3S8kohbkhbwae9qpGNuG1WlNtcY8qR9VpF3DQkpWVC6VJNXOOxgPrnY8EpzLGy6D2mfdcSVxFuQtPBBe1cj7dc9/ipRJ9uYk5+U+UhPTEZGoQRNO3ijpTlBY/Ka+tcBSu4gLfkqMh8I4dC8LTp6OqLqa3pPOLeYyJsaaqPn3A14pflCNN2Xhs86XkHiLQla+LSHkctpUCAvLQGXcgDXtt5oVcXJH23uNBdTfdQ1B9VE/bZbijtX4nHlnh1a+7aHxamuRmo7b6qQk3wWtxy88Wzz8q/AS3Bialv0T34HD6On6/Y9Krmrpy6+pCpIR/zFP6Fq6o3nPXXvc9c2hxfnIPViGh44d8BzLeTVvMJgWc6ocwHMw8NTeyoK4D824lUzCmae+kRfAP+x8dVKExQPzyOgogD+Axv5gOepggLx8/3QdWcnbD6+HsEtJciN+xxjB36ArP/8jPiPOuvO46kPqrlv5OHheVwIBEJYCQXGawV4HhNM70IrCJnyefXzPBaYrwmthOx/vMfxVIc1fKYux7vuJzHeSw6bBrZw7fYRbvRchY2z+OK3vuGfAPPw8PDw8PDw/G1Q4F76JfyeUwZ7j3Zo26i+XiDhMYQvgHl4eHh4eHh4eJ4q+FcgeHh4eHh4eHh4nir4ApiHh4eHh4eHh+epgi+AeXh4eHh4eHh4nir+ngVwfizCZ36EfVeVQNEZrJ85H7tStH9JpD4oyUhCam75nxDheRrIjw3HzI/26bb+CZQgIykVtXZj5XUcXDoTa07m6nY8SYpwZv1MzN+Vott+ktQsi/LGISx7j+nsxG3UZ/ZQXj+IpTPX4OQTyElFZ9Zj5vxduq36oI5++T+NEtcPLsXMNSd1238vnmQO1PjZwt1Irb9pvFbUv7+bomouMaw9Hq8s5lLfubiOMWFYCz4C/pYFsKowAfvDt+DkTRYtpRn49eiPuJhTPwpQXv8Kg/3GYlfGU5mhn1JUKEzYj/Atf8+JyXJYUvlqMPzG7kKt3ViZhZht4Yg8f1+340lSioxfj+LHizm67SdJTbIU4/SaWVgaRfB+zqVeE6cyKwbbwiNx/v7jX49cmvErjv54UbdVV+rBL/+nUSIrZhvCI8/rtv9OPNkc+DD5AMI3ROH6Ey6A69ffuTDOJZVrj8cri7nUdy6uW0wY1YKPgL//KxDyEdiUfA4retfPnzqhwtu4U8gXvzz/yxAKb9/BP8eN5RixKRnnVvTWbT9JapBFeRO3HUdg3Y4w9JLr9v0DkI/YhORzK3RbdeWf5pc8/zTq19+5MM4llWuPxyuLufydcvGj5wkWwApkHFmMEf7ukEtEkDl3wGsf/oCMyg9687/D2936IjSmVLutykH0ymD4N7eH2FoK57b9MOObVBRrj7LT30b30auwc/lwPOtqA5HECW2C5uAQa1iVtQOTx27A5ZI0bBkdgJDN6ewKFXKiVyLYvznsxdaQOrdFvxnfILW8QeTj3JchCGjtDFuxGA5ufhgeFoXsGpL8gxMfok+38dhm+Aik9ByWDeiON/dUf1eVt28KugfPxfxh7eBk6wTfWeq7dA658s/hy5AAtHa2hVjsADe/4QiLyq74alaVE42Vwf5obi+GtdQZbfvNwDflF+ftw5TuwZg7fxjaOdnCyXcalr7TE4EzDuGe9gwNhf+dg94938UhtlN1+xQ+CemBNi62EFkxeRp6ofdbO5Baoj03/9yXCAloDWdbMcQObvAbHoaompRUhfv44X0T/efexp7JARi4Io7dn+pQJOLToQGY8PWf2m0OvzCmFNcPLcAQ3yZoILKGzKUdgmbswqUi3eHHYPPa+50KWTsmY+yGyyhJ24LRASHYnM58m8M+KErG9mkvwctJyuzTEn3mHsdtoweOHDq5/y3e7toF47fp9F0FFW6f+gQhPdrAxVYEK2aDhl698daOVGhFMKXTfHz3djf0DY3RnKn+Gi7566no7eUEqbgBmnWdiPBVk/Hi8M81R03FuBYuWZj7ZBzB4hH+cJdLIJI5o8NrH+IHzfWVZdHpxS8QIR8twcSXfI30wi1LVYqSt2PaS15wkjI9tOyDucdvs9JRj8nYrYa6xKZa/m59QzU/qzHZtzoXdx+NVTuXY/izrrARSeDUJghzDmWAeWC1fonS6zi0YAh8mzSAyFoGl3ZBmLHrErOwDo48Vpnay1cDigwcWTwC/u5ySEQyOHd4DR/+oDtfdRunPglBjzYusBVZsf4awqv3W9ihDyokb5+GlzR+6oCWfebiuFFQcfuhnnrIgaw/0znFmNLrh7BgiC+aNBDBWuaCdkEzsEufBE1Sq5xH93B2xevwaSSDWB0nfd/Ht2of0cCRf6rMWbNwkhWUJu1TzTXf7zb2d4t1YNE8o88l1dUeRrFnju+a7DsP+6Z0R/Dc+RjWzgm2Tr6YdbKIIzdUd80t4/zHFb9V4IoJ9TAsy29GcMhjcR2i/j3AT4KS+MXk38CBfCeuo+Nx5+lExHjqZCunfuF/kPLm59RL5kFTfiomuhtBQVIXCjn4kF1VRkkrA0nu2JkmrT1CZ+NP07dLBpGnTSuafOSept27EUEklTYgz5fm0vboODp7KIyCmoio8biDRAWJdCBsCHmImtOghRF0IOEelSWtpEC5I3WetJaOnI2n098uoUGeNtRq8hFSt1j26wdMrrYUEnGC4pN/o2OfDCE3cTOaeKRQ018V8vbQiGdk1G3FZVLodhWffJtaNuhFn/1RvscQJWWv7UNioQ35TNpOsbGRtDfmNodcZfTrB53Itm0IRZyIp+TfjtEnQ9xI3GwiacQqS6KVgXJy7DyJ1h45S/Gnv6UlgzzJptVkUqtJmb2W+oiFZOMzibbHxlLk3mhK3jyIHB2H0Pa7WqmI9bL3DReSD9hIt5R3aW+wK0lbj6TPj8VRUtJZOvSxWo9yGrI9V60k+qCTLbUNiaAT8cn027FPaIibmJpNPEI1aKkSTAdbTfRfdpM+7yUjjyk/EfMILSU/07teMgpYmcY2uPxCSTc/70UyjymaSx/EzqZONg707IQv6PDpsxS1eQYFOIvJY/wBuq18HDZXm6j2fleQeIDChniQqPkgWhhxgBLucdiHWeHEO14keeZFeu/raDoTvYNm93Qla4FIpz9unVBBNK2aOIEWH87WnF+Fu3sp2FVKrUd+Tsfikijp7CH6WC2jnNlU4yKmdHqXIoKk5BLCYpRREPU2eUmeoRff20Ynz8bQngVB1Jz5q3W7WZrjJmNcc4JpWVjyocX+DcjBdyKtOx5H509E0Hjmv/J+4fSHwlgWLr1wylKZwhP0jpeEnnnxPfo6+gxF75hNPV2tSSAKoJVpzFc4YrcqdYtNjfwuIdqmuPrW5GIpNfB8ieZuj6Y4ptewoCYkajyODhao02tlv3xAsbM7kY3DszThi8N0+mwUbZ4RQM5iDxp/4DaLSo48Vpk6yleVEopf7E8NHHxp4rrjFHf+BEWMZ/LI+1E4i9u7e4PJVdqaRn5+jOKSkphtP6YhHiKSD9lOmqg68Y7OT7+m6DPRtGN2T3K1FpAoYKW2eS4/NKKuOVCtHlM5xTgHMsem2Z1syOHZCfTF4dN0NmozzQhwJrHHeDqgCXgOLMx5aj+TCKyoUc9ZtONUPJ0/uooGNRdRo7EHNMe54qzqnBVDl3ebtk+116wz8HeLdcBdfxhjkEuqqT2MYo/Tdzn6VmbT2j5iEtr40KTtsRQbuZdibt82nRtquEaf/7jityqcMWFhfjOqBbnkqUUd8oQK4BKKntaSJN7z6HyJbhcT8aewUTThy3M1F8DFUfSmu5S6LNMHndrJdgxzIvuBW+i2eksdaOJAWn293DzavqTPh2m2yhJDqbPMmz78rYxtFVPUm+4k7bKMLhvE7N0dw8jJfiBtYQ0+3B9MTnbdKey3+1qDK9Lpx/XhdDC52ozK+IsOhDQmSedQSlR3wYz242R3cghaRzer8xh14mMFsETah8Izy0/gkush7Q92IrvuYfTbfe01ivQfaX34QVKLVRz1JrlLu9Ay44tpmJM9DWSD0iQGiZT6hGfqnZgltJEuchq4OVu7L3cnvd7wGXp9J8vGyhw6t2sNbTll4PQlMTS9tZSeD7tEiof7KdjJjrqH/UZacRSU/uN6Cj+YTDVpqQom++dI/px+YZj8CyjyjYYk67qMUitOVlLW5oEkt+lNX9xQPgab19XvyigxtDPJvD8kjRtz2adgP412llHgJ2kV+lFmrqdX7MW6yZNbJ1woc87RrjVb6JTBxFESM51aS5+nsEsKjvEYFp336JvhzLf7hpO+21zawwoBkUEBbCrGuWQpiZ5GLSXeNE+ffKjwpzAaNeFLOldsKAu3XrhkqUzB/tHkLAukT9TFrgYlZa5/hezF2gKYK3arUMfYNJyEOftW52KJmAJXX6/oS6NLnV6r+GVBJL3RUEZdl6Xq41KZRZsHysmm9xfMvqbzWGXqLl8lSqJpWksJec87z6ymo/AnChs1gb48V0Q553bRmi2ntDeAGkooZnprjW0vKQpo/2hnkgV+QnpTZtL6V+xJrJvsufywCnXJgZw5xbgALoh8gxrKutIyvWMz02ymgXIb6v3FDb0v1YhlOU8bJy/SxxXKKqHT77chqd9i9jN3nFWds5Qc9mFnVDPPGfq7xTowo/4wxvhm2rj2MJaF03e5+tYUsxKS9gmnijKCKzdUd42hzJzxq9tXAXdMWJrfjGpBLnkeWF6HPJlXIFR5SLmUCYfn/NFBrNsHW/SetwMb3/LXbVdFmZWApFsKXF43FD4dO6Kj5tMDobFFeHg1BWm674YE8hZo5Vo+NCHkcjsIFBVfHOlRZiEh6RYUl9dhqE95ex3RIzQWRQ+vIoU1KO01FmPcLmC+XxM08+mLMXO+Q4H/cPTv0EDXSGXs0HfkALgk7cM38QrgQTT2/PAXeo4YjMYmtC1wdIe7k+4ETrmE6DV2DNwuzIdfk2bw6TsGc74rgP/w/ujQQImshCTcUlzGuqE+Fdd27BGK2KKHuJqSpv0KTeAId3cn/Tswjq8iuL8tTu37HjkqFW5/vxc/iV9h+xoyFbrAf8QY+OXvx7LZUzB2aB/4tR+E8DQlVOxckvbC2DFuuDDfD02a+aDvmDn4rsAfw/t3QE1aqoKp/jkw1y80KP5A0uUHaN61O1pY6fYxLbgEBqC98goSL5U9epvXt99x2KcsPRmpBU3h69cc5UMWunRDl9bW2g0zdMKF0MUfI8b4IX//MsyeMhZD+/ih/aBwpClVTAYyfzyK35GYWgT35/3RpEJ3cnTt0gEi3ZYaUzFuWhYl8lIuIdPhOfjrkw9se8/Djo1vwd9wqYGZejE730CB9ORUFDT1hV/zCkvApVsXaE1hZuwaUm+xaW7ekKNFK1cmtRahXA47gQKlpVUX8Cn+SMLlB83RtXuLCr9TyxsY0B7KK4m4VCY1kcd051dQ//Kp8lJwKdMBz/l3gH4a6o15OzbiLX8ZXPxHYIxfPvYvm40pY4eij197DApPg5LpVVWWjuTUAjT19YPelC7o1qU1dFHFGRNVqEMONCen6FHgj6TLeNC8K7rrHZvJG4iA9kpcSbwE7oi3fJ4TyFvCq6ne7+3tG0BQUmx2nBnPWey4KfuUq7fyPFeB5TqwaJ6pDSZ817y+BXB0d0d5GaH2R5O5QXNSpWsM4I5f3b5yFFwxUYv8ZgCnPFaW1yHlsfqYKYNCyTq3EjH1W0BJCVOQPToHz0RIO73TqhHatUVL3WgEVlZ6BWmoqZcSlDCN23cOxsyQdsbXCO3QVt2gYz98diYer+zeif2Hf8SJjbOwc80qDF4Xg8jxBoYwwKZXMAY334b9u8/i/cC9OFrSF58MbFRNEOpRy2xdISa3XI4un+FM/CvYvXM/Dv94Ahtn7cSaVYOxLmY3umkvRvDMEBirSQi7ti2Z0RPUHcJK3yGjAfqOGgSnoftwMPMVWO09BbsB3+BlB3ZIlcXG2h1j9jxE+8BAdO4UiHHDXsOZebNxRXOtI/p9dgbxr+zGzv2H8eOJjZi1cw1WDV6HmMjxBknNFKb6155hPGWok5xujxl+oY/VUihZvrYWGbu+wMqa6YW1qWRtPnKb19Xv3HQn6+CyDws2JZPE2nDIAimkknL7m6ETDlRZkRjffQz2PGyPwMDO6BQ4DsNeO4N5s7UeYno8aiMbQ+pJTPdzdZiKcS5ZyrTJB6Ka0kIF5unF/HyjNgXrW6i+Xo9AKkW5KUo4Y7cSdYxNQ81z952sHizYcI2ocbSlSlZmWMNYfQKWd9gOZl9tqNWUx5gNKyWOepevTMHiwhpW1TqCCllMP93H7MHD9oEI7NwJgeOG4bUz86B1I3atxpRGloRUKqnojzMmqlCHHGhOTjFYiF+qdWxjf2K605pGWamf6rF0ntPGTXWYmX+M5iwu++ioMs/psVgHZtYftcaU75rRd4I6tpjOKq7hzA1qKl1jiBnxawx3TFic3wzhlMcR/S2sQ0zVZI8OYUN4uNkjL+2KbhGMGgVSN76JUQt/0G1XxaqxJ9xsHqDIoSuCx4zBGM1nFPr5tkQb71bV3sVUQWBgaqvG8HSzwYMiB3QNLm9vDEb180XLNt5o5QTkxu3Gmn3ZeG7CIkQcOIO0zESs7lGIIzsOG8heCUk3vDG0BW4c3oFVO44Br7yB/qwts+GSS34PcbvXYF/2c5iwKAIHzqQhM3E1ehQewY7Dd9DY0w02D4rg0DW44toxo/rBt2UbeLNB1aQmafdRGNrkLA5s24zIn5/B4FG9YMv2q25GYu2eu+i9Jg7n/7sbG1YtwNQBjVD2F1OAulDJjcPuNfuQ/dwELIo4gDNpmUhc3QOFR3bgsKkX0CtRU/9MISxICaUlD/VJqTQb2Xe1bVvkF9buTLfWuJmcjHsGohUlJuF3NIOHp9Wjt3k9+J2hG3PZx9q9NTwlt3ApJa98HmWZ6Aqu3mATgBpOnRg+e60OFW5GrsWeu72xJu48/rt7A1YtmIoBjcqgFUFlvk6tW6NTOxlunI8z2P8X4uJSzXgqpYZLFiEaerjBPi8NVww6VqRuxJujFuKHWwbC1FkvlbGGe2tPSG5dQkqevsGSK1ehNYWVxbFbf7Fped/VYeiX1u4sLq1vIjn5nt7vUITEpN+BZh7wtMo1kceydeeXUz/yGSJs6AE3+zykXTFYdKdIxcY3R2HhoQuIXLsHd3uvQdz5/2L3hlVYMHUAGpX9xc5l/zHfaO0pwa1LKdCbsgRXrt5gM5kaLj/UnFSF2uZA7pxilAThznRpfTMZycaODa1pPI2+bamRus5z5dQmzlQ3TdtHd1rNWK6DOtcfhsFhIbXpmys3cMEZv5UVxBkTdYthLnnc/7K8DrE0Z9QTNug1cjBcz36BudtSUMCMUZCyDaFLtuJCQdWnQRU4BGH0EGec//QtLP0pk6lWiTtnV2Pcyz0xOCwWD3SnmUIglkBMhbh/X20SBwSNHgLn85/iraU/IbMEUN45i9XjXkbPwWGIfSCE4NoBLJk6DYuPZLD+WH78KxN/5pbCyc0NDjVqT4zn33gdbf/YjFXfi/HqyL6w0x0xDw65Hgpw7cASTJ22GEcyNFLhr8w/kVvqBDc3B6am0RjifB6fvrUUP2kvxtnV4/Byz8EIizWhJbE/Rg33xOlVq/BL82EI7qr7Plh9lywoxZ30dNxnfqTMvYBN0xbh+/vqO7piCAXXcGDJVExbfARacf5C5p+5KHVyg5taScWX8ENEBL5LyNe2VxM19S+Uw93dEXdP7sWhdNZBSQaOLV6No/m6qcAiv2iIAaP7wyZqKaZGxCGPuUHRtW8xe2EkHnQZidfbiB6DzevqdwKIJWJQ4X1o3JjDPuqvVscNc8SJ5e9g88V8KItv4PsPQ7G3otjj0gm7deawofrpjaD0DtLT77PkpETuhU2Ytuh73GfSlxRbEkdyDJg8Gk1iF2H0rK04cfoU9n40Bu/uyQGZOYGYlkX95GokBruexRdztyGlgE2WBSnYFroEWy8UwMHRUBgz9GIhjq+OwzDHE1j+zmZczFei+Mb3+DB0L8pNYXHs1jU2Dah13qigkl82HIDR/W0QtXQqIuLyWJYqwrVvZ2Nh5AN0Gfk62ohM57HK1F2+Stj0wsjBrjj7xVxsSylgNUEBUraFYsnWCyhwaAiRtQCld9KRrlUsLmyahkVaxaIYjnh13DA4nliOdzZfRL6yGDe+/xChe29VTM5cflgttc2BnDlFd5qOhgNGo79NFJZOjUCc1rHx7eyFiHzQBSNfb8NKlWJc+iECEd8loOasXdd5rpzaxJn6SaAp+3DDrYNK1LH+MK49LKQ2fXPNC1xwxW8VBXHHRJ1imEOedtbm57oKdO8CP36UeRS7rD95yKxIbCMjkVBGHv1X0C/qBY01/hYIduxuDC0d0IJshUISSyVkLZBSsz4LKCpH+0a2+sVyWeMJdFh7OqOMEhb4ksx3gXbz4Uma7iUhK4kddXo/Rt0gxSwdQC1shSQUS0liLSBpsz60ICpH++J4WRrtnOBNcnb7LbWzJ5lIRM7+U2lfusFL3NVRlkyLnxeTdYupdKJClurQLoKTNZtExypWNzA45CpL20kTvOVkZSUlO3umP5Ez+U/dR1qxlHQ3ZikNaGFLQqGYpBJrEkibUZ8FUaRWk2ZxgKwZTTLqUIvi0lJ6QSKizgsvMs3pUOZS1NwXyMma6dy2AUnFTuQzainNCZKTfNAW1mYZpe2cQN5yK7KS2pG9TEQiZ3+aui9d+7L67XXUj7XZdfnvmuZMUW3/jJLkdTS0hYyE1lKykdqQx4D5NOVF24oV0Kb9otIKaGU2RS18mdxkAiavDdOtlJoGTqf913U9PnKbM+rodw9PTicviRVJ7DrR+9G3OOyj7i6aFvVtRlKhiMSsrYZdQmhIR5sK/XHqhMOGytwomvuCE1kzf7NtICWxkw+NWjqHguRyGrSFjcnkeIwXi6gX1CRtnUw9WshJImpATf1H07ShXiTpNE9zlCvGOWVh/+XFLqP+HjKyEtswWYTMN/rTCnXyqSwLh144800VWGxGL6K+zaQkFIlZ3DakLiFDqKON7rdAqI+biN0q1DE2jRbicPWtzsWyxjRBP1gqS1hAvjJfWpCg1YeRX8aUMPVF0cKX3UgmYHa3YXEpbUqB0/eTPtRM5bHK1F2+yijzYmlZfw+SWYnJhulGyOad/it+0fzWhNyoufSCkzWLT1tqIBWTk88oWjoniOTyQbRFG1QUvagvNZMKSSRmem3YhUKGdCSb8kVwnH5YPbXNgaZzSqUcyLazoxbSy24yEjDd2zBdSpsG0vT913V93qZ1/SQk6rqcfq/WFjrMzHnVxUnyR51JpotprjirOmdx26e6ea6yv5vWQVW46g9jKuWSSrWHkSxm+K7JvjUL2mTUbNIx/SJJrtxQVs01lWTmit8qcMQEO8Gi/Gb8WyC45OGoQ6pBoP5HVws/ERR515CQkgWlS1v4tnHWL0YwiRL56YlIziiEpGkHeLd0MvM6LaqCdMRf/BOqpt543lP7pEGZn47E5AwUSpqig3dLOBk1qEJhZgqSrt2H0NkLPu0aQao7UiOq29g6tB0+bnMY8Su6WCSfISblUhUiMyUJ1+4L4ezlg3aNKkmlzEd6YjIyCiVo2sEbLY0HZSEqFNy4iIs3iiFv5YOOTWx0+/WoCjORknQN94XO8PJpB704KtxePxT/wXoc/L9Gun21oPQOrsRfwT271vBt3whV/zSKZX6hyEtDwqUcwLUtvFs1rHTu47F57f2O2SM9Hhf/VKGpd2eo3ZjLPuq/ZpaTehFpD5zR4bkWkFdzU1yzTlTI/mow/k+4oWYbqgpw4+JF3CiWo5VPR1QVwRydqpCTfBa3HLzxbPPypQslODG1Lfonv4OH0dN1+zjglIWhyMO1hBRkKV3Q1rcNnE0YzLSv1ILiHKReTMMD5w54roW86ldxFsVuXWKzGuqUNyr7pXpkCuSlJUCrPm+0alipPa48Vpl6zWtqmHzXEpCSpYRLW1+0MXAEVcENXLx4A8XyVvDp2ATVRlVOKi6mPYBzh+fQonJQmeOHlsCZA7lySiVYDKQlXEIOXNHWuxUMTaO6vR5D/wOs/+7/0KiGB2j1Nc+VY2mcmWMfTkzooHpqX39UV3tYhqV9c+cGbjjitxpMxoSaOsWwaXksyXVPvAD+J6J+3P8wPgz9+h5G/5ifMbe95V+V/qMoPoPQ4C1ou2YdRjavKZP+b/OPt3lRDD4Y/jW810U8YhsqED/fD113dsLm4+sR3FKC3LjPMXbgB8j6z8+I/6iz7jweHp5HRzHOhAZjS9s1WDeyebXvSvLzHM//OnwBXN8o4vDhCy/h40QBOr1/ED8t62m00vrpRAX14iPhP7P2fWpsrp7wHocJVTnH8OHIiVgdcxtCmRBlJTK0eT0M2za8hc41/T4bHh6eekW9eFVYU9Lm5zmefwB8AVzvKJF/4xKuF7uivdmvdPD8b8PbvP5R4F76JfyeUwZ7j3Zo26iu3x3z8PDUH3zO4/nfhy+AeXh4eHh4eHh4nir+qV9K8/Dw8PDw8PDw8FQLXwDz8PDw8PDw8PA8VfAFMA8PDw8PDw8Pz1MFXwDz8PDw8PDw8PA8VfxDC+B8xIbPxEf7ruq26xdlxmEsGt0PgS/2xviNqeD+w4YlyEhKRW753wP826FAwtY5eP/zaIO/4V1bLNN90Zn1mDl/l27r74jxeCyTt77trsT1g0sxc81J3baF5McifOZH2HdVqdtRf+THhmPmR/u0G0VnsH7mfOxKqcWf/EQRzqyfifm7UnTbTIsZSUitFyVWbZuHp/7g/YuH53+Jf2YBrCpEwv5wbDl5U7ejPinCD/PHY8nP1ug2ZDD6dnLlUCIrWr4aDL+xu5Dxty2AS3HlyFp8se8CKv60fG2xUPelGb/i6I8XdVt/QyqNx3x5H4XdlciK2YbwyPO6bctQFSZgf/gWnLxZm8LUFCoUJuxH+BZdYV6agV+P/oiLObUptEuR8etR/HgxR7OlvP4VBvuNxa56UaJx2zw89QvvXzw8/0vwr0BYiqoAWVkFaPzKDCx6bxreeMGRQ4mEwtt3UPi3LX6fLPIRm5B8boVu6++P+fI+xXaXj8Cm5HNY0bu6P9TKhRwjNiXj3Iremi0qvI079aZE47Z5eOoX3r94eP6XeDIF8P0f8H7PQMw4dE+3Q00h/junN3q+ewiq23swOWAgVsSV6o4BisRPMTRgAr7+UzsZqnKisTLYH83txbCWOqNtvxn4JrVYc6wKpddxaMEQ+DZpAJG1DC7tgjBj1yUU6Q4j/xy+DAlAa2dbiMUOcPMbjrCobM1fvjJCcRGrX38VK5lcOd9NRbeub2N/milZFcjaMRljN1xGSdoWjA4IweY/bmHP5AAMXBGHiisUifh0aAAmfP0n28jDvindETx3Poa1c4Ktky9mnWSScowh/9yXCAloDWdbMcQObvAbHoao7FoWDvnf4e3uo7Fq53IMf9YVNiIJnNoEYc6hDJQ/01NkHMHiEf5wl0sgkjmjw2sf4oeMyk/8VLi9ZzICBq6AXj0KJH46FAETvtZs5X/3Nrr1DdX8jLx9mNI9GHPnD0M7J1s4+c6CeuiGcPqGGbKrbp/CJyE90MbFFiIra0gbeqH3WzuQWqI7wQRG8iIf574MQUBrZ9iKxXBw88PwsChkq1RV7Z6urEW/RUjePg0veTlByvyyZZ+5OH7b8BG9CjnRKxHs3xz2Ytaec1v0m/ENagqDynDJU2ufUtugW1+ExqhtlI/v3u6O0cu3IHRwBzwjFcO2WVe8+U0qkne8ie7udizmHOHVfwli7qnbVp/fDX1DY6DK2oHJYzfgckkatowOQMjmdLXQOPVJCHq0cYGtyIrFfkN49X4LOwyUWLNv6tvWwBVTzNbdR6/CzuXD8ayrDUQSJ7QJmoNDFX7Opf+a/EN3uDJFyfh6am+0dpRCIm+Fl+dsx+eTumvzAhu36byhxlJ/UCDjyGKM8HeHXCKCzLkDXvvwB2iGV0Msms67LN5PfYKQHm3gYiuClbUUDb16460dqajexXW+sWonlg9/Fq42Ikic2iBoziGtDBq4xmRiDAzT8pq2D1d85O2bgu7BczF/WDs42TrBd9b3xv5lhq/y8PA8QdR/COOxo8ymrYMcyXHIdrqr20X39tIbLnIasPEWKW9+Tr1kHjTlp2LdQaKSn98lL1kArUxTEJUl0cpAOTl2nkRrj5yl+NPf0pJBnmTTajIducdOVt6kz3vJyGPKT2zjAcXO7kQ2Ds/ShC8O0+mzUbR5RgA5iz1o/IHbpKQy+vWDTmTbNoQiTsRT8m/H6JMhbiRuNpGOFGq61sPkPrP7UxrbQUzOfWbTV5uOUso107IWJB6gsCEeJGo+iBZGHKCEXL1sFVeU/EzveskoYGWapo+1fcQktPGhSdtjKTZyL8XcLjA9hrJf6YNOttQ2JIJOxCfTb8c+oSFuYmo28QhVHkL1PKDdw+1I3H0V/cHUS3cjKEgqpQaeL9Hc7dEUd/YQhQU1IVHjcXSwgB0viafF/g3IwXcirTseR+dPRNB41r+8Xzj9UWqoeyXd/LwXyTymkF49JfTzu14kC1ip2bobEURSlxDNz8rstdRHLCQbn0m0PTaWIvfG0G2l5lAFnL7BJTvzuL3BriRtPZI+PxZHSUln6dDHQ8hDJKch23M17Rlh5EvG8pb9+gF1sm1LIREnKD75Nzr2yRByEzejicxxqtj9noX9MgpPvENekmfoxfe+pugz0bRjdk9ytRaQSKe7sqSVFCh3pM6T1tKRs/F0+tslNMjThlpNPkLqMKiMse445LHIp/R21qCxgQuFHHyo3qCIIAmJZO7UL3Q/nY6PobXD3Ulk35Dcnv8PrY/6lc7un0Xd5FLquvyy7nwpuYQcJKZEOhCmlqk5DVoYQQcS7tHdvcHkKm1NIz8/RnFJSXT20Mc0xENEcpZLNFo05ZsKg7Y584LO1tIG5PnSXNoeHcf6CqOgJiJqPE59Pbf+TflHVQrp5PQ2JHHqQtO2nKQzJ7fSjICmZCsV6/ICR95gWOoPJfGLyb+BA/lOXEfH487TiYjxTF459Qv/o/pYLOHIu3f3UrCrlFqP/JyOxSVREou9j9UxIB9C1bu41h7SBp700tztFB3HfDAsiJqIGtM4bbByjsnUGLjmCdP24YpXJWWv7UNioQ35TNpOsbGRtDfmsoF/qdXB4as8PDxPlCdTADPy9owkF/lA2pytrXByd75ODZ95nXayipiryCmOepPcpV1o2WV1tabj7g4a5mRPA7fcNposqCCS3mgoo67LUqnibGUWbR4oJ5veX9AN5UPaH+xEdt3D6Lf7WlkU6T/S+vCDlKzNwcawa798SUaeU09oJiLOgowV2ImhnUnm/SH9VsY2uSYyTQEsIWmfcMosL/64xvBgPwU72VH3sN9IOwQFpf+4nsIPJlN1Q6hKNQWwREyBq69rCgE1JdHTqKX0eQq7pND+LPGmeedLdEfZ9P1TGI2a8CWdK6pjASyRUp/wzIp+K2NWAWxCdlLm0Llda2jLKW2Ro6Ekhqa3ltLzYZf0+i3HRAH8cH8wOdl1p7Df7mvbUqTTj+vD6aDGcSrb3cJ+meX2j3YmWeAnpHEjNcpMWv+KPYk1uiumqDfdSdplGRmHwTBysh9I6jCojJHuuOR5aIlPcRfAapnLx1F8fDK5idxp8nH1cYYmpqTUeMIPbMOwSGVaTAylzjJv+lCrRMo5t4vWbDllcGNUQjHTW5P0+TBSm9ekbxYbFtdceUFra4k4kFZfL++shKKntdT0ZY7+TftHJQq/pTHO7CZg2eUKeZQ3vqJ+duYWwJb6g3YsEu95pFdVIf0UNoomfHmu2ljkyrvKnHO0a80WOmVw11oSM51al8deFXS+Ebia9CqOpmkttT7IPSbTY+CS16R9OONVWwBLpH0ovCJRG/out6/y8PA8WZ7YO8COrwajv+0p7Ps+ByrVbXy/9yeIX2H7GupOqBElshKScEtxGeuG+qBjx47aT49QxBY9xNWUNP1XhAzFH0m4/KA5unZvASvdPghdEBjQHsoribhUJkWvsWPgdmE+/Jo0g0/fMZjzXQH8h/dHhwa68x87Aji6u8NJZx3OMVj1wtgxbrgw3w9Nmvmg75g5+K7AH8P7d0CthyCQo0Ur/QI/oVwOO4ECpaVK5KVcQqbDc/DvoP8L8La952HHxrfgX5vXPg0ROMLd3alu7+bUKDtp9OY/Ygz88vdj2ewpGDu0D/zaD0J4mpL5oQqWrAGU9hqLMW4XMN+vCZr59MWYOd+hwH84+lfnOJb2q0hHcmoBmvr6oXm50Vkb3bq0hrX6Z2UWEpJuQXF5HYb66GKAfXqExqLo4VWkpBlGQTVwySOtT58SwL6lF5rqxiGwaQCZdWO4NxdpdwhtYCMTQKmo+N67BoRw8R+BMX752L9sNqaMHYo+fu0xKDwNSiazilRm+yZ3XtDuEshboJVrhSdBLreDQMF0a4b+LfEP5Y0UXP7LFc+94FEhj7BpIF5sq7E2N5b6gyoPKZcy4fCcP/SqskXveTuw8S1/7aZRLHLnXYWLP0aM8UP+/mWYPWUshvbxQ/tB4UhTMtuoaoosAeQtWkGvYjnkdgIoSs3Q8dVsE2PozCmv0JR9zIxXgaM73MsTtRFcvqo7jYeH54lRXeQ+Hhr0xahBTvh530Fk3jqIvafsMCD4ZTjoDqsXERmhTjq6XSUlLDnad0bwzNmYPbv8swCrIrZg2b9aaguEcljBpmB7REY7BbCyZjtYm0rWpmO/z3Am/ijWvT8AnoVnsHHW6/D3HY7Nf3BNyOXULGtNGB9WJ0TDPUw+K2v2rw7OMTii32dnEH90Hd4f4InCMxsx63V/+A7fDLOHUBmBFZNB97OOcnnK1IWKtRVEFQJyUEU9VHmXHnW/1lwNV2nQWN8mZIcqC5Hj/eD3r4+wPyEPkhaBGLdoIYa71SIUHPvhszPxOLrufQzwLMSZjbPwur8vhm/+o+J94wos7lcBJWtEqLZxBQJIpRLdWEqgDYNgzKyIAfZZsAoRW5bhXy2NnKUqnPLUp08JIBLpit0KBGozWYgKWZHj4ef3L3y0PwF5khYIHLcIC4e7VSQys33TjLyg2cMcyVjM8obN0L8l/sEggTUT3UBwgfbGwBBjzzfMG5b6Qxm0qhJVjKgKlWKRK+8KsyIx3s8P//poPxLyJGgROA6LFg6H6dBS57qagpVrTGRyDJzzhCn7mBmvav+oPl1x+yoPD8+T5QnGohTdRw1Fk7MHsG1zJH5+ZjBG9bLVHlJPOlSKkof6dF+anY27msUJVmjs6QabB0Vw6BqMMWPGaD+j+sG3ZRt4tzJ+emjt7gk365tITr7HUlI5RUhM+h1o5gFPq1zE7V6DfdnPYcKiCBw4k4bMxNXoUXgEOw5n6843gUlZtQiMEqS6OCOUljzUT2al2cg2vKASXGNw/ysOu9fsQ/ZzE7Ao4gDOpGUicXUPFB7ZgcO1XQhXI0I09HCDfV4arhi0rUjdiDdHLcQPt4z7U09uVFoCvXpKkZ1912AcFmKGvk2huhmJtXvuoveaOJz/725sWLUAUwc0QtlfrAFW+JiPCrlxu7FmXzaem7AIEQfOIC0zEat7FOLIjsOahTSGdre4X2t3tPaU4NalFIPfzVyCK1dvsMKNYdUYnm42eFDkgK7Buhhgn1H9fNGyjTdaVftUSg+XPKrcx+lTJjBWIiLX7sHd3msQd/6/2L1hFRZMHYBGZX8xa6j/M983OfNC5Xq9Mpz6B6d/GGLVvA1a2dzCpRSD2Ci+jCsVdxscecNSfxA2hIebPfLSrhjIokDqxjcxauEPum1DuPKunBV8a7Hnbm+siTuP/+7egFULpmJAozJYHFrlcI3pGWcTYzjKKe89E/bJyqhjnuD0VR4enifNE70ZFfuPwnDP01i16hc0HxaMrrqvKIVyd7g73sXJvYeQXsKm/YxjWLz6aMXvqHUIGo0hzufx6VtL8VMmO0F5B2dXj8PLPQcjLPaB9qRyGg7A6P42iFo6FRFxeSw9FuHat7OxMPIBuox8HW1EAlw7sARTpy3GkQz16lwF/sr8E7mlTnBz0z+PrgkuWdWPM8QSMajwPu6rKxehHO7ujrh7ci8OaS/AscWrcdTUL+DlGEM762s4sGQqpi0+Au0Q/kLmn7kodXKDmwMzseIKjkasx77zedr26ohNr5EY7HoWX8zdhpQClswLUrAtdAm2XiiAg6OhSwkhd3eH492T2HsoXf08BxnHFmP10fyanwBzwK1vDqxFsBaU4k56Ou6zWUiZewGbpi3C9/dZWyXlq8PNQQjBtQNYMnUaFh/JYCNTqz0Tf+aWwsnNDQ7CSna3uF9HvDpuGBxPLMc7my8iX1mMG99/iNC9t3STpwOCRg+B8/lP8dbSn6ANg7NYPe5l9BwchsphUAUOeYQCDp96TAjEEoipEPe1SoTIWoDSO+lI1wqNC5umYZFWaKi1aLZvcuUFzqfTXPrn8g9tKxXYBSFkuAtiP34HG+LvQ8nywpHQUOzJ0hXAnHnDUn+wQa+Rg+F69gvM3ZaCAlbUFaRsQ+iSrbhQUH3e48q71iJrCErvID39PvNRJXIvbMK0Rd/jvjryLQmtCrjGZHoMpuV9aNo+4rrmCW5fZT3iytEIrN93vh7+ABEPD4/F6N4FfkIo6NLSF0gi6kwLL6oXuZRTQsnrhlILmZCspTYktfGgAfOn0Iu25QvLlHQ3ZikNaGFLQqGYpBJrEkibUZ8FUZSjXnBQaeGSMjuKFr7sRjKBFWtLwtpsSoHT99N1XZdlaTtpgrecrKykZGcvI5HImfyn7qP06hYqVFoExy0r0cOT08lLYkUSu070fkwJlSSvo6EtZCS0lpINu8ZjwHya8qKtwSI4GTWbdEy/2IVhegxllLZzAnnLrchKakf2MhGJnP1p6r507YKagq00UCKizqGJ6q1qqGYRnKwxTTisW6TEKEtYQL4yX1qQoF2MlBe7jPp7yMhKbEMykZBkHv1pxS/32CFj3bPB0rqhLUgmtGZys/F6DKD5U14k25oWwcma0aRjhiOvDIe+uWRX5lLU3BfIyVpIYtsGJBU7kc+opTQnSE7yQVu0/mOIiUVwzHFo5wRvklsxm9jZMz2IyNl/Ku3TOY6R3aNvWdavGuVdil7Ul5pJhSQSM5s27EIhQzqSjU536uMxSwdQC1shCcVSklgLSNqsDy2IytEv3DHAeBEclx44fMoIrkVwMmo84TCVW6Tkl/epjawrLf+9vKX7tHmATLd4yHgRHFMiTfeSkJXEjjq9H025UXPpBSdrNl5baiAVk5PPKFo6J4jk8kG0RRv8Nftmpba58oLa1rLGE0jvSmWUsMCXZL4LtJtc+ufwjyrcO00rB3iQVCgiMbN3w+cHUPem0orf8mAyb6ix0B9ImUexy/qTh8yKxDYs7wmZn/dfQZowrjYWTeddZW4UzX3BiazZMdsGUhI7+dCopXMoSC6nQVuqk6Gqb7BgpQW+MvJdkKDd5hqTiTFwyWvSPpzxoV0EJ2s2ifQqMvQvpRm+WkBbB0pI1DmUEnU+x8PD8/gQqP/R1cJ/O0rvXEH8lXuwa+2L9o2qWV2lzEd6YjIyCiVo2sEbLZ30C1+qokBeWgIu5QCubb3RqmGlc1WFyExJwrX7Qjh7+aBdI6nugHmYllWFgvR4XPxThabeneGpfvxTegdX4q/gnl1r+LZvBPPWjpkeg6owEylJ13Bf6Awvn3awcAiWo8jDtYQUZCld0Na3DZxrVH8p7lyJx5V7dmjt2x7VmdJSOH3DJMweNy7i4o1iyFv5oGMTG93+2qBCYWYKkq7dh9DZCz7tGkGv9sp2R636Lc5JxcW0B3Du8BxayKs+fVXmpyMxOQOFkqbo4N0SJsPACG49PHafqgZVQTriL/4JVVNvPM+UqCq4gYsXb6BY3go+HZugWi2a7ZscecEMTOvflH9URyluX47H74Uu6NgxCx/59MW5iUn4eWZL3WHuvGGpPyjyriEhJQtKl7bwbeMMTg2YyruqAty4eBE3iuVo5dMRdQotA7jGZHIMJucJjvitY54wy1d5eHieCH/rApiHh4fnqaX0F7zXqVIBzMPDw8NTLzy+l/l4eHh4eCxAAKGVFYTGq2h5eHh4eOoB/gkwDw8PDw8PDw/PUwX/BJiHh4eHh4eHh+cpAvh/0uX2jRI+OGsAAAAASUVORK5CYII=;" vertex="1" parent="1">
          <mxGeometry x="240" y="30" width="704" height="62" as="geometry" />
        </mxCell>
        <mxCell id="EeAk10VtTzFDhjeAnIUY-2" value="CLIENTE" style="whiteSpace=wrap;html=1;align=center;" vertex="1" parent="1">
          <mxGeometry x="210" y="210" width="100" height="40" as="geometry" />
        </mxCell>
        <mxCell id="EeAk10VtTzFDhjeAnIUY-3" value="VUELO" style="whiteSpace=wrap;html=1;align=center;" vertex="1" parent="1">
          <mxGeometry x="530" y="410" width="100" height="40" as="geometry" />
        </mxCell>
        <mxCell id="EeAk10VtTzFDhjeAnIUY-5" value="ID_cliente" style="ellipse;whiteSpace=wrap;html=1;align=center;fontStyle=4;" vertex="1" parent="1">
          <mxGeometry x="80" y="130" width="100" height="40" as="geometry" />
        </mxCell>
        <mxCell id="EeAk10VtTzFDhjeAnIUY-6" value="Nombre" style="ellipse;whiteSpace=wrap;html=1;align=center;" vertex="1" parent="1">
          <mxGeometry x="10" y="180" width="100" height="40" as="geometry" />
        </mxCell>
        <mxCell id="EeAk10VtTzFDhjeAnIUY-7" value="Apellido" style="ellipse;whiteSpace=wrap;html=1;align=center;" vertex="1" parent="1">
          <mxGeometry x="20" y="240" width="100" height="40" as="geometry" />
        </mxCell>
        <mxCell id="EeAk10VtTzFDhjeAnIUY-8" value="DNI" style="ellipse;whiteSpace=wrap;html=1;align=center;" vertex="1" parent="1">
          <mxGeometry x="20" y="300" width="100" height="40" as="geometry" />
        </mxCell>
        <mxCell id="EeAk10VtTzFDhjeAnIUY-9" value="Email" style="ellipse;whiteSpace=wrap;html=1;align=center;" vertex="1" parent="1">
          <mxGeometry x="200" y="130" width="100" height="40" as="geometry" />
        </mxCell>
        <mxCell id="EeAk10VtTzFDhjeAnIUY-11" value="RESERVA" style="whiteSpace=wrap;html=1;align=center;" vertex="1" parent="1">
          <mxGeometry x="210" y="410" width="100" height="40" as="geometry" />
        </mxCell>
        <mxCell id="EeAk10VtTzFDhjeAnIUY-12" value="ASIENTO" style="whiteSpace=wrap;html=1;align=center;" vertex="1" parent="1">
          <mxGeometry x="210" y="565" width="100" height="40" as="geometry" />
        </mxCell>
        <mxCell id="EeAk10VtTzFDhjeAnIUY-13" value="ITINERARIO&amp;nbsp;" style="whiteSpace=wrap;html=1;align=center;" vertex="1" parent="1">
          <mxGeometry x="800" y="410" width="100" height="40" as="geometry" />
        </mxCell>
        <mxCell id="EeAk10VtTzFDhjeAnIUY-14" value="Telefono" style="ellipse;whiteSpace=wrap;html=1;align=center;" vertex="1" parent="1">
          <mxGeometry x="314" y="140" width="100" height="40" as="geometry" />
        </mxCell>
        <mxCell id="EeAk10VtTzFDhjeAnIUY-15" value="realiza" style="shape=rhombus;perimeter=rhombusPerimeter;whiteSpace=wrap;html=1;align=center;" vertex="1" parent="1">
          <mxGeometry x="210" y="310" width="100" height="40" as="geometry" />
        </mxCell>
        <mxCell id="EeAk10VtTzFDhjeAnIUY-16" value="corresponde" style="shape=rhombus;perimeter=rhombusPerimeter;whiteSpace=wrap;html=1;align=center;" vertex="1" parent="1">
          <mxGeometry x="380" y="410" width="90" height="40" as="geometry" />
        </mxCell>
        <mxCell id="EeAk10VtTzFDhjeAnIUY-17" value="" style="endArrow=none;html=1;rounded=0;entryX=0.5;entryY=1;entryDx=0;entryDy=0;" edge="1" parent="1" source="EeAk10VtTzFDhjeAnIUY-15" target="EeAk10VtTzFDhjeAnIUY-2">
          <mxGeometry relative="1" as="geometry">
            <mxPoint x="420" y="320" as="sourcePoint" />
            <mxPoint x="580" y="320" as="targetPoint" />
          </mxGeometry>
        </mxCell>
        <mxCell id="EeAk10VtTzFDhjeAnIUY-18" value="(1,1)" style="resizable=0;html=1;whiteSpace=wrap;align=right;verticalAlign=bottom;" connectable="0" vertex="1" parent="EeAk10VtTzFDhjeAnIUY-17">
          <mxGeometry x="1" relative="1" as="geometry">
            <mxPoint y="20" as="offset" />
          </mxGeometry>
        </mxCell>
        <mxCell id="EeAk10VtTzFDhjeAnIUY-19" value="" style="endArrow=none;html=1;rounded=0;exitX=0.5;exitY=1;exitDx=0;exitDy=0;entryX=0.5;entryY=0;entryDx=0;entryDy=0;" edge="1" parent="1" source="EeAk10VtTzFDhjeAnIUY-15" target="EeAk10VtTzFDhjeAnIUY-11">
          <mxGeometry relative="1" as="geometry">
            <mxPoint x="420" y="320" as="sourcePoint" />
            <mxPoint x="580" y="320" as="targetPoint" />
          </mxGeometry>
        </mxCell>
        <mxCell id="EeAk10VtTzFDhjeAnIUY-20" value="(1,M)" style="resizable=0;html=1;whiteSpace=wrap;align=right;verticalAlign=bottom;" connectable="0" vertex="1" parent="EeAk10VtTzFDhjeAnIUY-19">
          <mxGeometry x="1" relative="1" as="geometry" />
        </mxCell>
        <mxCell id="EeAk10VtTzFDhjeAnIUY-21" value="se asigna" style="shape=rhombus;perimeter=rhombusPerimeter;whiteSpace=wrap;html=1;align=center;" vertex="1" parent="1">
          <mxGeometry x="210" y="490" width="100" height="40" as="geometry" />
        </mxCell>
        <mxCell id="EeAk10VtTzFDhjeAnIUY-22" value="ID_asiento" style="ellipse;whiteSpace=wrap;html=1;align=center;fontStyle=4;" vertex="1" parent="1">
          <mxGeometry x="50" y="610" width="100" height="40" as="geometry" />
        </mxCell>
        <mxCell id="EeAk10VtTzFDhjeAnIUY-23" value="Fila" style="ellipse;whiteSpace=wrap;html=1;align=center;" vertex="1" parent="1">
          <mxGeometry x="140" y="660" width="100" height="40" as="geometry" />
        </mxCell>
        <mxCell id="EeAk10VtTzFDhjeAnIUY-24" value="Clase" style="ellipse;whiteSpace=wrap;html=1;align=center;" vertex="1" parent="1">
          <mxGeometry x="260" y="660" width="100" height="40" as="geometry" />
        </mxCell>
        <mxCell id="EeAk10VtTzFDhjeAnIUY-25" value="Letra" style="ellipse;whiteSpace=wrap;html=1;align=center;" vertex="1" parent="1">
          <mxGeometry x="314" y="605" width="100" height="40" as="geometry" />
        </mxCell>
        <mxCell id="EeAk10VtTzFDhjeAnIUY-26" value="" style="endArrow=none;html=1;rounded=0;exitX=1;exitY=0.5;exitDx=0;exitDy=0;entryX=0;entryY=1;entryDx=0;entryDy=0;" edge="1" parent="1" source="EeAk10VtTzFDhjeAnIUY-22" target="EeAk10VtTzFDhjeAnIUY-12">
          <mxGeometry relative="1" as="geometry">
            <mxPoint x="420" y="520" as="sourcePoint" />
            <mxPoint x="580" y="520" as="targetPoint" />
          </mxGeometry>
        </mxCell>
        <mxCell id="EeAk10VtTzFDhjeAnIUY-27" value="" style="endArrow=none;html=1;rounded=0;exitX=0.5;exitY=0;exitDx=0;exitDy=0;entryX=0.25;entryY=1;entryDx=0;entryDy=0;" edge="1" parent="1" source="EeAk10VtTzFDhjeAnIUY-23" target="EeAk10VtTzFDhjeAnIUY-12">
          <mxGeometry relative="1" as="geometry">
            <mxPoint x="420" y="520" as="sourcePoint" />
            <mxPoint x="580" y="520" as="targetPoint" />
          </mxGeometry>
        </mxCell>
        <mxCell id="EeAk10VtTzFDhjeAnIUY-28" value="" style="endArrow=none;html=1;rounded=0;exitX=0;exitY=0;exitDx=0;exitDy=0;entryX=0.5;entryY=1;entryDx=0;entryDy=0;" edge="1" parent="1" source="EeAk10VtTzFDhjeAnIUY-24" target="EeAk10VtTzFDhjeAnIUY-12">
          <mxGeometry relative="1" as="geometry">
            <mxPoint x="420" y="520" as="sourcePoint" />
            <mxPoint x="580" y="520" as="targetPoint" />
          </mxGeometry>
        </mxCell>
        <mxCell id="EeAk10VtTzFDhjeAnIUY-29" value="" style="endArrow=none;html=1;rounded=0;exitX=1;exitY=0.75;exitDx=0;exitDy=0;entryX=0;entryY=0.5;entryDx=0;entryDy=0;" edge="1" parent="1" source="EeAk10VtTzFDhjeAnIUY-12" target="EeAk10VtTzFDhjeAnIUY-25">
          <mxGeometry relative="1" as="geometry">
            <mxPoint x="420" y="520" as="sourcePoint" />
            <mxPoint x="580" y="520" as="targetPoint" />
          </mxGeometry>
        </mxCell>
        <mxCell id="EeAk10VtTzFDhjeAnIUY-30" value="sigue" style="shape=rhombus;perimeter=rhombusPerimeter;whiteSpace=wrap;html=1;align=center;" vertex="1" parent="1">
          <mxGeometry x="680" y="415" width="80" height="30" as="geometry" />
        </mxCell>
        <mxCell id="EeAk10VtTzFDhjeAnIUY-31" value="" style="endArrow=none;html=1;rounded=0;entryX=0.5;entryY=1;entryDx=0;entryDy=0;exitX=0.5;exitY=0;exitDx=0;exitDy=0;" edge="1" parent="1" source="EeAk10VtTzFDhjeAnIUY-21" target="EeAk10VtTzFDhjeAnIUY-11">
          <mxGeometry relative="1" as="geometry">
            <mxPoint x="420" y="420" as="sourcePoint" />
            <mxPoint x="580" y="420" as="targetPoint" />
          </mxGeometry>
        </mxCell>
        <mxCell id="EeAk10VtTzFDhjeAnIUY-32" value="(1,1)" style="resizable=0;html=1;whiteSpace=wrap;align=right;verticalAlign=bottom;" connectable="0" vertex="1" parent="EeAk10VtTzFDhjeAnIUY-31">
          <mxGeometry x="1" relative="1" as="geometry">
            <mxPoint y="20" as="offset" />
          </mxGeometry>
        </mxCell>
        <mxCell id="EeAk10VtTzFDhjeAnIUY-33" value="" style="endArrow=none;html=1;rounded=0;exitX=0.5;exitY=1;exitDx=0;exitDy=0;entryX=0.5;entryY=0;entryDx=0;entryDy=0;" edge="1" parent="1" source="EeAk10VtTzFDhjeAnIUY-21" target="EeAk10VtTzFDhjeAnIUY-12">
          <mxGeometry relative="1" as="geometry">
            <mxPoint x="420" y="420" as="sourcePoint" />
            <mxPoint x="580" y="420" as="targetPoint" />
          </mxGeometry>
        </mxCell>
        <mxCell id="EeAk10VtTzFDhjeAnIUY-34" value="(1,M)" style="resizable=0;html=1;whiteSpace=wrap;align=right;verticalAlign=bottom;" connectable="0" vertex="1" parent="EeAk10VtTzFDhjeAnIUY-33">
          <mxGeometry x="1" relative="1" as="geometry" />
        </mxCell>
        <mxCell id="EeAk10VtTzFDhjeAnIUY-36" value="" style="endArrow=none;html=1;rounded=0;exitX=1;exitY=0.5;exitDx=0;exitDy=0;entryX=0;entryY=1;entryDx=0;entryDy=0;" edge="1" parent="1" source="EeAk10VtTzFDhjeAnIUY-8" target="EeAk10VtTzFDhjeAnIUY-2">
          <mxGeometry relative="1" as="geometry">
            <mxPoint x="210" y="180" as="sourcePoint" />
            <mxPoint x="370" y="180" as="targetPoint" />
          </mxGeometry>
        </mxCell>
        <mxCell id="EeAk10VtTzFDhjeAnIUY-37" value="" style="endArrow=none;html=1;rounded=0;exitX=1;exitY=0.5;exitDx=0;exitDy=0;entryX=0;entryY=0.5;entryDx=0;entryDy=0;" edge="1" parent="1" source="EeAk10VtTzFDhjeAnIUY-7" target="EeAk10VtTzFDhjeAnIUY-2">
          <mxGeometry relative="1" as="geometry">
            <mxPoint x="210" y="180" as="sourcePoint" />
            <mxPoint x="370" y="180" as="targetPoint" />
          </mxGeometry>
        </mxCell>
        <mxCell id="EeAk10VtTzFDhjeAnIUY-38" value="" style="endArrow=none;html=1;rounded=0;exitX=1;exitY=0.5;exitDx=0;exitDy=0;entryX=0;entryY=0.25;entryDx=0;entryDy=0;" edge="1" parent="1" source="EeAk10VtTzFDhjeAnIUY-6" target="EeAk10VtTzFDhjeAnIUY-2">
          <mxGeometry relative="1" as="geometry">
            <mxPoint x="210" y="180" as="sourcePoint" />
            <mxPoint x="370" y="180" as="targetPoint" />
          </mxGeometry>
        </mxCell>
        <mxCell id="EeAk10VtTzFDhjeAnIUY-39" value="" style="endArrow=none;html=1;rounded=0;exitX=0.5;exitY=1;exitDx=0;exitDy=0;entryX=0;entryY=0;entryDx=0;entryDy=0;" edge="1" parent="1" source="EeAk10VtTzFDhjeAnIUY-5" target="EeAk10VtTzFDhjeAnIUY-2">
          <mxGeometry relative="1" as="geometry">
            <mxPoint x="210" y="180" as="sourcePoint" />
            <mxPoint x="370" y="180" as="targetPoint" />
          </mxGeometry>
        </mxCell>
        <mxCell id="EeAk10VtTzFDhjeAnIUY-40" value="" style="endArrow=none;html=1;rounded=0;exitX=0.5;exitY=1;exitDx=0;exitDy=0;entryX=0.25;entryY=0;entryDx=0;entryDy=0;" edge="1" parent="1" source="EeAk10VtTzFDhjeAnIUY-9" target="EeAk10VtTzFDhjeAnIUY-2">
          <mxGeometry relative="1" as="geometry">
            <mxPoint x="210" y="180" as="sourcePoint" />
            <mxPoint x="370" y="180" as="targetPoint" />
          </mxGeometry>
        </mxCell>
        <mxCell id="EeAk10VtTzFDhjeAnIUY-41" value="" style="endArrow=none;html=1;rounded=0;exitX=1;exitY=0;exitDx=0;exitDy=0;entryX=0.5;entryY=1;entryDx=0;entryDy=0;" edge="1" parent="1" source="EeAk10VtTzFDhjeAnIUY-2" target="EeAk10VtTzFDhjeAnIUY-14">
          <mxGeometry relative="1" as="geometry">
            <mxPoint x="210" y="180" as="sourcePoint" />
            <mxPoint x="370" y="180" as="targetPoint" />
          </mxGeometry>
        </mxCell>
        <mxCell id="EeAk10VtTzFDhjeAnIUY-42" value="" style="endArrow=none;html=1;rounded=0;entryX=1;entryY=0.5;entryDx=0;entryDy=0;exitX=0;exitY=0.5;exitDx=0;exitDy=0;" edge="1" parent="1" source="EeAk10VtTzFDhjeAnIUY-16" target="EeAk10VtTzFDhjeAnIUY-11">
          <mxGeometry relative="1" as="geometry">
            <mxPoint x="430" y="290" as="sourcePoint" />
            <mxPoint x="590" y="290" as="targetPoint" />
          </mxGeometry>
        </mxCell>
        <mxCell id="EeAk10VtTzFDhjeAnIUY-43" value="(1,1)" style="resizable=0;html=1;whiteSpace=wrap;align=right;verticalAlign=bottom;" connectable="0" vertex="1" parent="EeAk10VtTzFDhjeAnIUY-42">
          <mxGeometry x="1" relative="1" as="geometry">
            <mxPoint x="30" as="offset" />
          </mxGeometry>
        </mxCell>
        <mxCell id="EeAk10VtTzFDhjeAnIUY-44" value="Fecha_reserva" style="ellipse;whiteSpace=wrap;html=1;align=center;" vertex="1" parent="1">
          <mxGeometry x="10" y="415" width="100" height="40" as="geometry" />
        </mxCell>
        <mxCell id="EeAk10VtTzFDhjeAnIUY-45" value="ID_reserva" style="ellipse;whiteSpace=wrap;html=1;align=center;fontStyle=4;" vertex="1" parent="1">
          <mxGeometry x="90" y="370" width="100" height="40" as="geometry" />
        </mxCell>
        <mxCell id="EeAk10VtTzFDhjeAnIUY-46" value="Forma_d_pago" style="ellipse;whiteSpace=wrap;html=1;align=center;" vertex="1" parent="1">
          <mxGeometry x="40" y="460" width="100" height="40" as="geometry" />
        </mxCell>
        <mxCell id="EeAk10VtTzFDhjeAnIUY-47" value="Estado_reserva" style="ellipse;whiteSpace=wrap;html=1;align=center;" vertex="1" parent="1">
          <mxGeometry x="300" y="360" width="100" height="40" as="geometry" />
        </mxCell>
        <mxCell id="EeAk10VtTzFDhjeAnIUY-48" value="" style="endArrow=none;html=1;rounded=0;exitX=1;exitY=0.5;exitDx=0;exitDy=0;entryX=0;entryY=1;entryDx=0;entryDy=0;" edge="1" parent="1" source="EeAk10VtTzFDhjeAnIUY-46" target="EeAk10VtTzFDhjeAnIUY-11">
          <mxGeometry relative="1" as="geometry">
            <mxPoint x="430" y="400" as="sourcePoint" />
            <mxPoint x="590" y="400" as="targetPoint" />
          </mxGeometry>
        </mxCell>
        <mxCell id="EeAk10VtTzFDhjeAnIUY-51" value="" style="endArrow=none;html=1;rounded=0;exitX=1;exitY=0.5;exitDx=0;exitDy=0;entryX=0;entryY=0.75;entryDx=0;entryDy=0;" edge="1" parent="1" source="EeAk10VtTzFDhjeAnIUY-44" target="EeAk10VtTzFDhjeAnIUY-11">
          <mxGeometry relative="1" as="geometry">
            <mxPoint x="430" y="400" as="sourcePoint" />
            <mxPoint x="590" y="400" as="targetPoint" />
          </mxGeometry>
        </mxCell>
        <mxCell id="EeAk10VtTzFDhjeAnIUY-53" value="" style="endArrow=none;html=1;rounded=0;exitX=1;exitY=1;exitDx=0;exitDy=0;entryX=0;entryY=0.25;entryDx=0;entryDy=0;" edge="1" parent="1" source="EeAk10VtTzFDhjeAnIUY-45" target="EeAk10VtTzFDhjeAnIUY-11">
          <mxGeometry relative="1" as="geometry">
            <mxPoint x="250" y="420" as="sourcePoint" />
            <mxPoint x="410" y="420" as="targetPoint" />
          </mxGeometry>
        </mxCell>
        <mxCell id="EeAk10VtTzFDhjeAnIUY-54" value="" style="endArrow=none;html=1;rounded=0;exitX=0;exitY=1;exitDx=0;exitDy=0;entryX=0.75;entryY=0;entryDx=0;entryDy=0;" edge="1" parent="1" source="EeAk10VtTzFDhjeAnIUY-47" target="EeAk10VtTzFDhjeAnIUY-11">
          <mxGeometry relative="1" as="geometry">
            <mxPoint x="250" y="420" as="sourcePoint" />
            <mxPoint x="410" y="420" as="targetPoint" />
          </mxGeometry>
        </mxCell>
        <mxCell id="EeAk10VtTzFDhjeAnIUY-55" value="ID_vuelo" style="ellipse;whiteSpace=wrap;html=1;align=center;fontStyle=4;" vertex="1" parent="1">
          <mxGeometry x="420" y="350" width="100" height="40" as="geometry" />
        </mxCell>
        <mxCell id="EeAk10VtTzFDhjeAnIUY-56" value="Fecha_salida" style="ellipse;whiteSpace=wrap;html=1;align=center;" vertex="1" parent="1">
          <mxGeometry x="450" y="300" width="100" height="40" as="geometry" />
        </mxCell>
        <mxCell id="EeAk10VtTzFDhjeAnIUY-57" value="Fecha_llegada" style="ellipse;whiteSpace=wrap;html=1;align=center;" vertex="1" parent="1">
          <mxGeometry x="650" y="330" width="100" height="40" as="geometry" />
        </mxCell>
        <mxCell id="EeAk10VtTzFDhjeAnIUY-58" value="Hora_salida" style="ellipse;whiteSpace=wrap;html=1;align=center;" vertex="1" parent="1">
          <mxGeometry x="440" y="480" width="100" height="40" as="geometry" />
        </mxCell>
        <mxCell id="EeAk10VtTzFDhjeAnIUY-60" value="Hora_llegada" style="ellipse;whiteSpace=wrap;html=1;align=center;" vertex="1" parent="1">
          <mxGeometry x="550" y="500" width="100" height="40" as="geometry" />
        </mxCell>
        <mxCell id="EeAk10VtTzFDhjeAnIUY-61" value="AVION" style="whiteSpace=wrap;html=1;align=center;" vertex="1" parent="1">
          <mxGeometry x="530" y="170" width="100" height="40" as="geometry" />
        </mxCell>
        <mxCell id="EeAk10VtTzFDhjeAnIUY-62" value="tiene" style="shape=rhombus;perimeter=rhombusPerimeter;whiteSpace=wrap;html=1;align=center;" vertex="1" parent="1">
          <mxGeometry x="545" y="280" width="70" height="35" as="geometry" />
        </mxCell>
        <mxCell id="EeAk10VtTzFDhjeAnIUY-63" value="" style="endArrow=none;html=1;rounded=0;exitX=1;exitY=1;exitDx=0;exitDy=0;entryX=0;entryY=0;entryDx=0;entryDy=0;" edge="1" parent="1" source="EeAk10VtTzFDhjeAnIUY-55" target="EeAk10VtTzFDhjeAnIUY-3">
          <mxGeometry relative="1" as="geometry">
            <mxPoint x="450" y="390" as="sourcePoint" />
            <mxPoint x="610" y="390" as="targetPoint" />
          </mxGeometry>
        </mxCell>
        <mxCell id="EeAk10VtTzFDhjeAnIUY-64" value="" style="endArrow=none;html=1;rounded=0;exitX=1;exitY=1;exitDx=0;exitDy=0;entryX=0.25;entryY=0;entryDx=0;entryDy=0;" edge="1" parent="1" source="EeAk10VtTzFDhjeAnIUY-56" target="EeAk10VtTzFDhjeAnIUY-3">
          <mxGeometry relative="1" as="geometry">
            <mxPoint x="450" y="390" as="sourcePoint" />
            <mxPoint x="610" y="390" as="targetPoint" />
          </mxGeometry>
        </mxCell>
        <mxCell id="EeAk10VtTzFDhjeAnIUY-65" value="" style="endArrow=none;html=1;rounded=0;exitX=0.5;exitY=0;exitDx=0;exitDy=0;entryX=0;entryY=1;entryDx=0;entryDy=0;" edge="1" parent="1" source="EeAk10VtTzFDhjeAnIUY-58" target="EeAk10VtTzFDhjeAnIUY-3">
          <mxGeometry relative="1" as="geometry">
            <mxPoint x="450" y="390" as="sourcePoint" />
            <mxPoint x="610" y="390" as="targetPoint" />
          </mxGeometry>
        </mxCell>
        <mxCell id="EeAk10VtTzFDhjeAnIUY-66" value="" style="endArrow=none;html=1;rounded=0;exitX=0.75;exitY=1;exitDx=0;exitDy=0;entryX=0.5;entryY=0;entryDx=0;entryDy=0;" edge="1" parent="1" source="EeAk10VtTzFDhjeAnIUY-3" target="EeAk10VtTzFDhjeAnIUY-60">
          <mxGeometry relative="1" as="geometry">
            <mxPoint x="450" y="390" as="sourcePoint" />
            <mxPoint x="610" y="390" as="targetPoint" />
          </mxGeometry>
        </mxCell>
        <mxCell id="EeAk10VtTzFDhjeAnIUY-67" value="" style="endArrow=none;html=1;rounded=0;exitX=1;exitY=0;exitDx=0;exitDy=0;entryX=0;entryY=1;entryDx=0;entryDy=0;" edge="1" parent="1" source="EeAk10VtTzFDhjeAnIUY-3" target="EeAk10VtTzFDhjeAnIUY-57">
          <mxGeometry relative="1" as="geometry">
            <mxPoint x="450" y="390" as="sourcePoint" />
            <mxPoint x="610" y="390" as="targetPoint" />
          </mxGeometry>
        </mxCell>
        <mxCell id="EeAk10VtTzFDhjeAnIUY-68" value="Modelo" style="ellipse;whiteSpace=wrap;html=1;align=center;" vertex="1" parent="1">
          <mxGeometry x="445" y="120" width="100" height="40" as="geometry" />
        </mxCell>
        <mxCell id="EeAk10VtTzFDhjeAnIUY-69" value="ID_avion" style="ellipse;whiteSpace=wrap;html=1;align=center;fontStyle=4;" vertex="1" parent="1">
          <mxGeometry x="560" y="100" width="100" height="40" as="geometry" />
        </mxCell>
        <mxCell id="EeAk10VtTzFDhjeAnIUY-70" value="Matricula" style="ellipse;whiteSpace=wrap;html=1;align=center;" vertex="1" parent="1">
          <mxGeometry x="640" y="140" width="100" height="40" as="geometry" />
        </mxCell>
        <mxCell id="EeAk10VtTzFDhjeAnIUY-72" value="" style="endArrow=none;html=1;rounded=0;entryX=0.5;entryY=1;entryDx=0;entryDy=0;exitX=0.5;exitY=0;exitDx=0;exitDy=0;" edge="1" parent="1" source="EeAk10VtTzFDhjeAnIUY-62" target="EeAk10VtTzFDhjeAnIUY-61">
          <mxGeometry relative="1" as="geometry">
            <mxPoint x="450" y="300" as="sourcePoint" />
            <mxPoint x="610" y="300" as="targetPoint" />
          </mxGeometry>
        </mxCell>
        <mxCell id="EeAk10VtTzFDhjeAnIUY-73" value="(1,1)" style="resizable=0;html=1;whiteSpace=wrap;align=right;verticalAlign=bottom;" connectable="0" vertex="1" parent="EeAk10VtTzFDhjeAnIUY-72">
          <mxGeometry x="1" relative="1" as="geometry">
            <mxPoint y="20" as="offset" />
          </mxGeometry>
        </mxCell>
        <mxCell id="EeAk10VtTzFDhjeAnIUY-74" value="" style="endArrow=none;html=1;rounded=0;entryX=0.5;entryY=0;entryDx=0;entryDy=0;exitX=0.5;exitY=1;exitDx=0;exitDy=0;" edge="1" parent="1" source="EeAk10VtTzFDhjeAnIUY-62" target="EeAk10VtTzFDhjeAnIUY-3">
          <mxGeometry relative="1" as="geometry">
            <mxPoint x="450" y="300" as="sourcePoint" />
            <mxPoint x="610" y="300" as="targetPoint" />
          </mxGeometry>
        </mxCell>
        <mxCell id="EeAk10VtTzFDhjeAnIUY-75" value="(1,M)" style="resizable=0;html=1;whiteSpace=wrap;align=right;verticalAlign=bottom;" connectable="0" vertex="1" parent="EeAk10VtTzFDhjeAnIUY-74">
          <mxGeometry x="1" relative="1" as="geometry">
            <mxPoint x="30" y="-10" as="offset" />
          </mxGeometry>
        </mxCell>
        <mxCell id="EeAk10VtTzFDhjeAnIUY-76" value="Estado_vuelo" style="ellipse;whiteSpace=wrap;html=1;align=center;" vertex="1" parent="1">
          <mxGeometry x="660" y="480" width="100" height="40" as="geometry" />
        </mxCell>
        <mxCell id="EeAk10VtTzFDhjeAnIUY-77" value="" style="endArrow=none;html=1;rounded=0;exitX=1;exitY=1;exitDx=0;exitDy=0;entryX=0;entryY=0;entryDx=0;entryDy=0;" edge="1" parent="1" source="EeAk10VtTzFDhjeAnIUY-3" target="EeAk10VtTzFDhjeAnIUY-76">
          <mxGeometry relative="1" as="geometry">
            <mxPoint x="470" y="490" as="sourcePoint" />
            <mxPoint x="630" y="490" as="targetPoint" />
          </mxGeometry>
        </mxCell>
        <mxCell id="EeAk10VtTzFDhjeAnIUY-78" value="" style="endArrow=none;html=1;rounded=0;exitX=1;exitY=1;exitDx=0;exitDy=0;entryX=0;entryY=0;entryDx=0;entryDy=0;" edge="1" parent="1" source="EeAk10VtTzFDhjeAnIUY-68" target="EeAk10VtTzFDhjeAnIUY-61">
          <mxGeometry relative="1" as="geometry">
            <mxPoint x="470" y="210" as="sourcePoint" />
            <mxPoint x="630" y="210" as="targetPoint" />
          </mxGeometry>
        </mxCell>
        <mxCell id="EeAk10VtTzFDhjeAnIUY-79" value="" style="endArrow=none;html=1;rounded=0;exitX=0.5;exitY=1;exitDx=0;exitDy=0;entryX=0.5;entryY=0;entryDx=0;entryDy=0;" edge="1" parent="1" source="EeAk10VtTzFDhjeAnIUY-69" target="EeAk10VtTzFDhjeAnIUY-61">
          <mxGeometry relative="1" as="geometry">
            <mxPoint x="470" y="210" as="sourcePoint" />
            <mxPoint x="630" y="210" as="targetPoint" />
          </mxGeometry>
        </mxCell>
        <mxCell id="EeAk10VtTzFDhjeAnIUY-80" value="" style="endArrow=none;html=1;rounded=0;entryX=0;entryY=1;entryDx=0;entryDy=0;exitX=1;exitY=0.25;exitDx=0;exitDy=0;" edge="1" parent="1" source="EeAk10VtTzFDhjeAnIUY-61" target="EeAk10VtTzFDhjeAnIUY-70">
          <mxGeometry relative="1" as="geometry">
            <mxPoint x="470" y="210" as="sourcePoint" />
            <mxPoint x="630" y="210" as="targetPoint" />
          </mxGeometry>
        </mxCell>
        <mxCell id="EeAk10VtTzFDhjeAnIUY-81" value="ID_itinerario" style="ellipse;whiteSpace=wrap;html=1;align=center;fontStyle=4;" vertex="1" parent="1">
          <mxGeometry x="810" y="330" width="100" height="40" as="geometry" />
        </mxCell>
        <mxCell id="EeAk10VtTzFDhjeAnIUY-82" value="" style="endArrow=none;html=1;rounded=0;entryX=0.5;entryY=1;entryDx=0;entryDy=0;exitX=0.5;exitY=0;exitDx=0;exitDy=0;" edge="1" parent="1" source="EeAk10VtTzFDhjeAnIUY-13" target="EeAk10VtTzFDhjeAnIUY-81">
          <mxGeometry relative="1" as="geometry">
            <mxPoint x="470" y="490" as="sourcePoint" />
            <mxPoint x="630" y="490" as="targetPoint" />
          </mxGeometry>
        </mxCell>
        <mxCell id="EeAk10VtTzFDhjeAnIUY-83" value="Origen" style="ellipse;whiteSpace=wrap;html=1;align=center;" vertex="1" parent="1">
          <mxGeometry x="920" y="360" width="100" height="40" as="geometry" />
        </mxCell>
        <mxCell id="EeAk10VtTzFDhjeAnIUY-85" value="Destino" style="ellipse;whiteSpace=wrap;html=1;align=center;" vertex="1" parent="1">
          <mxGeometry x="930" y="415" width="100" height="40" as="geometry" />
        </mxCell>
        <mxCell id="EeAk10VtTzFDhjeAnIUY-86" value="Num_vuelo" style="ellipse;whiteSpace=wrap;html=1;align=center;" vertex="1" parent="1">
          <mxGeometry x="890" y="470" width="100" height="40" as="geometry" />
        </mxCell>
        <mxCell id="EeAk10VtTzFDhjeAnIUY-87" value="" style="endArrow=none;html=1;rounded=0;exitX=0.75;exitY=1;exitDx=0;exitDy=0;entryX=0;entryY=0;entryDx=0;entryDy=0;" edge="1" parent="1" source="EeAk10VtTzFDhjeAnIUY-13" target="EeAk10VtTzFDhjeAnIUY-86">
          <mxGeometry relative="1" as="geometry">
            <mxPoint x="860" y="490" as="sourcePoint" />
            <mxPoint x="1020" y="490" as="targetPoint" />
          </mxGeometry>
        </mxCell>
        <mxCell id="EeAk10VtTzFDhjeAnIUY-88" value="" style="endArrow=none;html=1;rounded=0;exitX=1;exitY=0.5;exitDx=0;exitDy=0;entryX=0;entryY=0.5;entryDx=0;entryDy=0;" edge="1" parent="1" source="EeAk10VtTzFDhjeAnIUY-13" target="EeAk10VtTzFDhjeAnIUY-85">
          <mxGeometry relative="1" as="geometry">
            <mxPoint x="860" y="490" as="sourcePoint" />
            <mxPoint x="1020" y="490" as="targetPoint" />
          </mxGeometry>
        </mxCell>
        <mxCell id="EeAk10VtTzFDhjeAnIUY-89" value="" style="endArrow=none;html=1;rounded=0;exitX=1;exitY=0;exitDx=0;exitDy=0;entryX=0;entryY=1;entryDx=0;entryDy=0;" edge="1" parent="1" source="EeAk10VtTzFDhjeAnIUY-13" target="EeAk10VtTzFDhjeAnIUY-83">
          <mxGeometry relative="1" as="geometry">
            <mxPoint x="860" y="490" as="sourcePoint" />
            <mxPoint x="1020" y="490" as="targetPoint" />
          </mxGeometry>
        </mxCell>
        <mxCell id="EeAk10VtTzFDhjeAnIUY-90" value="Cant_asientos" style="ellipse;whiteSpace=wrap;html=1;align=center;" vertex="1" parent="1">
          <mxGeometry x="410" y="190" width="100" height="40" as="geometry" />
        </mxCell>
        <mxCell id="EeAk10VtTzFDhjeAnIUY-91" value="" style="endArrow=none;html=1;rounded=0;exitX=1;exitY=0.5;exitDx=0;exitDy=0;entryX=0;entryY=0.5;entryDx=0;entryDy=0;" edge="1" parent="1" source="EeAk10VtTzFDhjeAnIUY-90" target="EeAk10VtTzFDhjeAnIUY-61">
          <mxGeometry relative="1" as="geometry">
            <mxPoint x="440" y="300" as="sourcePoint" />
            <mxPoint x="600" y="300" as="targetPoint" />
          </mxGeometry>
        </mxCell>
        <mxCell id="EeAk10VtTzFDhjeAnIUY-92" value="" style="endArrow=none;html=1;rounded=0;entryX=1;entryY=0.5;entryDx=0;entryDy=0;" edge="1" parent="1" source="EeAk10VtTzFDhjeAnIUY-30" target="EeAk10VtTzFDhjeAnIUY-3">
          <mxGeometry relative="1" as="geometry">
            <mxPoint x="610" y="400" as="sourcePoint" />
            <mxPoint x="770" y="400" as="targetPoint" />
          </mxGeometry>
        </mxCell>
        <mxCell id="EeAk10VtTzFDhjeAnIUY-93" value="1" style="resizable=0;html=1;whiteSpace=wrap;align=right;verticalAlign=bottom;" connectable="0" vertex="1" parent="EeAk10VtTzFDhjeAnIUY-92">
          <mxGeometry x="1" relative="1" as="geometry">
            <mxPoint x="20" as="offset" />
          </mxGeometry>
        </mxCell>
        <mxCell id="EeAk10VtTzFDhjeAnIUY-94" value="" style="endArrow=none;html=1;rounded=0;entryX=0;entryY=0.5;entryDx=0;entryDy=0;exitX=1;exitY=0.5;exitDx=0;exitDy=0;" edge="1" parent="1" source="EeAk10VtTzFDhjeAnIUY-30" target="EeAk10VtTzFDhjeAnIUY-13">
          <mxGeometry relative="1" as="geometry">
            <mxPoint x="610" y="400" as="sourcePoint" />
            <mxPoint x="770" y="400" as="targetPoint" />
          </mxGeometry>
        </mxCell>
        <mxCell id="EeAk10VtTzFDhjeAnIUY-95" value="(1,M)" style="resizable=0;html=1;whiteSpace=wrap;align=right;verticalAlign=bottom;" connectable="0" vertex="1" parent="EeAk10VtTzFDhjeAnIUY-94">
          <mxGeometry x="1" relative="1" as="geometry" />
        </mxCell>
        <mxCell id="EeAk10VtTzFDhjeAnIUY-96" value="" style="endArrow=none;html=1;rounded=0;exitX=1;exitY=0.5;exitDx=0;exitDy=0;entryX=0;entryY=0.5;entryDx=0;entryDy=0;" edge="1" parent="1" source="EeAk10VtTzFDhjeAnIUY-16" target="EeAk10VtTzFDhjeAnIUY-3">
          <mxGeometry relative="1" as="geometry">
            <mxPoint x="420" y="400" as="sourcePoint" />
            <mxPoint x="580" y="400" as="targetPoint" />
          </mxGeometry>
        </mxCell>
        <mxCell id="EeAk10VtTzFDhjeAnIUY-97" value="(1,M)" style="resizable=0;html=1;whiteSpace=wrap;align=right;verticalAlign=bottom;" connectable="0" vertex="1" parent="EeAk10VtTzFDhjeAnIUY-96">
          <mxGeometry x="1" relative="1" as="geometry" />
        </mxCell>
        <mxCell id="EeAk10VtTzFDhjeAnIUY-98" value="&lt;h1 style=&quot;margin-top: 0px;&quot;&gt;Restricciones&lt;/h1&gt;&lt;p&gt;-&amp;nbsp;Un asiento solo puede estar asignado una vez por vuelo.&lt;/p&gt;&lt;p&gt;-&amp;nbsp;Una reserva puede cancelarse, pero no eliminarse si el vuelo ya partiÃ³.&lt;/p&gt;&lt;p&gt;-Los vuelos deben tener una fecha/hora futura (para nuevas reservas)&lt;/p&gt;&lt;p&gt;-No se pueden duplicar reservas con mismo cliente + mismo vuelo.&lt;/p&gt;" style="text;html=1;whiteSpace=wrap;overflow=hidden;rounded=0;" vertex="1" parent="1">
          <mxGeometry x="570" y="570" width="300" height="250" as="geometry" />
        </mxCell>
      </root>
    </mxGraphModel>
  </diagram>
</mxfile>
